# 3ds Max Wavefront OBJ Exporter v0.97b - (c)2007 guruware
# File Created: 27.01.2018 01:13:52

#
# object Disease_Extensions_Spines_03
#

v  0.0003 0.0000 0.0017
v  0.0017 0.0000 0.0006
v  0.0029 0.0024 0.0009
v  0.0010 0.0023 0.0023
v  0.0012 -0.0000 -0.0010
v  0.0022 0.0024 -0.0013
v  -0.0006 -0.0000 -0.0010
v  -0.0002 0.0023 -0.0013
v  -0.0011 0.0000 0.0006
v  -0.0009 0.0023 0.0009
v  0.0003 -0.0008 0.0012
v  0.0013 -0.0008 0.0005
v  0.0009 -0.0008 -0.0007
v  -0.0003 -0.0008 -0.0007
v  -0.0007 -0.0008 0.0005
v  0.0004 -0.0011 0.0001
v  0.0035 0.0080 0.0009
v  0.0021 0.0107 0.0008
v  0.0010 0.0107 0.0016
v  0.0020 0.0080 0.0020
v  0.0029 0.0080 -0.0008
v  0.0017 0.0107 -0.0005
v  0.0011 0.0080 -0.0008
v  0.0003 0.0107 -0.0005
v  0.0005 0.0081 0.0009
v  -0.0001 0.0107 0.0008
v  -0.0020 0.0163 0.0006
v  -0.0023 0.0181 0.0006
v  -0.0029 0.0182 0.0010
v  -0.0027 0.0163 0.0012
v  -0.0022 0.0163 -0.0003
v  -0.0025 0.0181 -0.0002
v  -0.0031 0.0163 -0.0002
v  -0.0033 0.0182 -0.0001
v  -0.0034 0.0163 0.0006
v  -0.0035 0.0182 0.0005
v  -0.0006 0.0136 0.0007
v  -0.0014 0.0135 0.0014
v  -0.0009 0.0136 -0.0004
v  -0.0019 0.0135 -0.0004
v  -0.0022 0.0135 0.0007
v  0.0037 0.0050 0.0009
v  0.0020 0.0051 0.0022
v  0.0031 0.0050 -0.0011
v  0.0009 0.0051 -0.0011
v  0.0003 0.0051 0.0009
v  -0.0014 0.0233 0.0004
v  -0.0003 0.0269 0.0002
v  -0.0018 0.0234 0.0006
v  -0.0015 0.0234 -0.0001
v  -0.0020 0.0234 0.0001
v  -0.0021 0.0234 0.0003
v  -0.0021 0.0206 0.0006
v  -0.0027 0.0206 0.0008
v  -0.0024 0.0206 -0.0002
v  -0.0030 0.0207 0.0000
v  -0.0032 0.0207 0.0004
# 57 vertices

vn -0.0675 -0.3480 0.9350
vn 0.8355 -0.4716 0.2821
vn 0.8845 -0.3560 0.3016
vn -0.0216 -0.0939 0.9953
vn 0.4905 -0.3884 -0.7801
vn 0.5512 -0.2076 -0.8081
vn -0.6074 -0.2287 -0.7608
vn -0.5783 0.1448 -0.8029
vn -0.9389 -0.2074 0.2748
vn -0.9265 0.2067 0.3143
vn -0.0021 -0.7247 0.6890
vn 0.6605 -0.7191 0.2161
vn 0.4073 -0.7190 -0.5632
vn -0.4067 -0.7246 -0.5563
vn -0.6524 -0.7276 0.2119
vn 0.0264 -0.9996 -0.0086
vn 0.9256 0.2437 0.2897
vn 0.8000 0.5334 0.2748
vn 0.0375 0.1691 0.9849
vn 0.0618 0.1207 0.9908
vn 0.6079 0.2231 -0.7620
vn 0.5278 0.4195 -0.7386
vn -0.5397 0.0315 -0.8413
vn -0.5060 -0.1877 -0.8419
vn -0.9396 -0.0767 0.3336
vn -0.8440 -0.4310 0.3191
vn 0.8886 0.3211 0.3274
vn 0.9237 0.0717 0.3763
vn -0.1125 0.0748 0.9908
vn -0.0889 0.0455 0.9950
vn 0.5014 0.1799 -0.8463
vn 0.4726 0.0430 -0.8802
vn -0.6389 -0.1221 -0.7595
vn -0.6644 0.0429 -0.7461
vn -0.9406 -0.2015 0.2734
vn -0.9698 0.0318 0.2419
vn 0.7678 0.5768 0.2787
vn -0.0591 0.0073 0.9982
vn 0.4787 0.3483 -0.8059
vn -0.5582 -0.3001 -0.7736
vn -0.8481 -0.4481 0.2828
vn 0.9512 -0.1015 0.2913
vn 0.0718 0.0292 0.9970
vn 0.6301 -0.0267 -0.7761
vn -0.5236 0.1903 -0.8304
vn -0.9139 0.2384 0.3284
vn 0.8574 -0.2157 0.4674
vn 0.3568 0.9338 -0.0261
vn -0.1597 0.1565 0.9747
vn 0.3815 -0.0695 -0.9217
vn -0.5754 0.2621 -0.7747
vn -0.9087 0.4095 0.0813
vn 0.8921 -0.1366 0.4307
vn -0.1506 0.1112 0.9823
vn 0.4042 -0.0442 -0.9136
vn -0.6443 0.1885 -0.7412
vn -0.9500 0.2528 0.1831
# 57 vertex normals

vt 0.7500 0.0000 1.0000
vt 0.9500 0.0000 1.0000
vt 0.9500 0.1250 1.0000
vt 0.7500 0.1250 1.0000
vt -0.0500 0.0000 1.0000
vt 0.1500 0.0000 1.0000
vt 0.1500 0.1250 1.0000
vt -0.0500 0.1250 1.0000
vt 0.3500 0.0000 1.0000
vt 0.3500 0.1250 1.0000
vt 0.5500 0.0000 1.0000
vt 0.5500 0.1250 1.0000
vt 0.8500 0.0000 1.0000
vt 0.2500 0.0000 1.0000
vt 0.9176 0.3350 0.9385
vt 0.8548 0.5000 0.8191
vt 0.7048 0.5000 0.8191
vt 0.7341 0.3380 0.9364
vt 0.1500 0.3360 1.0000
vt 0.1500 0.5000 1.0000
vt 0.0000 0.5000 1.0000
vt -0.0330 0.3350 1.0000
vt 0.3320 0.3398 1.0000
vt 0.3000 0.5000 1.0000
vt 0.5135 0.3412 1.0000
vt 0.4500 0.5000 1.0000
vt 0.5548 0.5000 0.8191
vt 0.7376 0.7788 0.5965
vt 0.7119 0.8125 0.5477
vt 0.6369 0.8125 0.5477
vt 0.6493 0.7784 0.5970
vt 0.1500 0.7787 1.0000
vt 0.1500 0.8125 1.0000
vt 0.0750 0.8125 1.0000
vt 0.0615 0.7788 1.0000
vt 0.2387 0.7782 1.0000
vt 0.2250 0.8125 1.0000
vt 0.3275 0.7781 1.0000
vt 0.3000 0.8125 1.0000
vt 0.5619 0.8125 0.5477
vt 0.5606 0.7781 0.5975
vt 0.7869 0.6782 0.6901
vt 0.6731 0.6750 0.6925
vt 0.1500 0.6770 1.0000
vt 0.0356 0.6782 1.0000
vt 0.2655 0.6727 1.0000
vt 0.3815 0.6713 1.0000
vt 0.5580 0.6713 0.6951
vt 0.9500 0.2046 1.0000
vt 0.7500 0.2057 1.0000
vt 0.1500 0.2052 1.0000
vt -0.0500 0.2046 1.0000
vt 0.3500 0.2064 1.0000
vt 0.5500 0.2067 1.0000
vt 0.6464 0.8985 0.4233
vt 0.5691 1.0000 0.2764
vt 0.6059 0.8982 0.4237
vt 0.1500 0.8984 1.0000
vt 0.1500 1.0000 1.0000
vt 0.1094 0.8985 1.0000
vt 0.1907 0.8981 1.0000
vt 0.2316 0.8981 1.0000
vt 0.5652 0.8981 0.4239
vt 0.6846 0.8484 0.4958
vt 0.6239 0.8486 0.4955
vt 0.1500 0.8484 1.0000
vt 0.0894 0.8484 1.0000
vt 0.2105 0.8487 1.0000
vt 0.2709 0.8489 1.0000
vt 0.5633 0.8489 0.4951
# 70 texture coords

o Disease_Extensions_Spines_03
g Disease_Extensions_Spines_03
s 1
f 1/1/1 2/2/2 3/3/3 4/4/4 
s 2
f 2/5/2 5/6/5 6/7/6 3/8/3 
s 4
f 5/6/5 7/9/7 8/10/8 6/7/6 
f 7/9/7 9/11/9 10/12/10 8/10/8 
s 8
f 9/11/9 1/1/1 4/4/4 10/12/10 
s 1
f 2/2/2 1/1/1 11/1/11 12/2/12 
s 2
f 5/6/5 2/5/2 12/5/12 13/6/13 
s 4
f 7/9/7 5/6/5 13/6/13 14/9/14 
s 1
f 9/11/9 7/9/7 14/9/14 15/11/15 
s 8
f 1/1/1 9/11/9 15/11/15 11/1/11 
s 16
f 12/2/12 11/1/11 16/13/16 
f 13/6/13 12/5/12 16/14/16 
f 14/9/14 13/6/13 16/14/16 
f 15/11/15 14/9/14 16/14/16 
f 11/1/11 15/11/15 16/13/16 
s 1
f 17/15/17 18/16/18 19/17/19 20/18/20 
s 2
f 21/19/21 22/20/22 18/21/18 17/22/17 
s 4
f 23/23/23 24/24/24 22/20/22 21/19/21 
f 25/25/25 26/26/26 24/24/24 23/23/23 
s 8
f 20/18/20 19/17/19 26/27/26 25/25/25 
s 1
f 27/28/27 28/29/28 29/30/29 30/31/30 
s 2
f 31/32/31 32/33/32 28/34/28 27/35/27 
s 4
f 33/36/33 34/37/34 32/33/32 31/32/31 
f 35/38/35 36/39/36 34/37/34 33/36/33 
s 8
f 30/31/30 29/30/29 36/40/36 35/41/35 
s 1
f 18/16/18 37/42/37 38/43/38 19/17/19 
s 2
f 22/20/22 39/44/39 37/45/37 18/21/18 
s 4
f 24/24/24 40/46/40 39/44/39 22/20/22 
f 26/26/26 41/47/41 40/46/40 24/24/24 
s 8
f 19/17/19 38/43/38 41/48/41 26/27/26 
s 1
f 3/3/3 42/49/42 43/50/43 4/4/4 
s 2
f 6/7/6 44/51/44 42/52/42 3/8/3 
s 4
f 8/10/8 45/53/45 44/51/44 6/7/6 
f 10/12/10 46/54/46 45/53/45 8/10/8 
s 8
f 4/4/4 43/50/43 46/54/46 10/12/10 
s 1
f 42/49/42 17/15/17 20/18/20 43/50/43 
s 2
f 44/51/44 21/19/21 17/22/17 42/52/42 
s 4
f 45/53/45 23/23/23 21/19/21 44/51/44 
f 46/54/46 25/25/25 23/23/23 45/53/45 
s 8
f 43/50/43 20/18/20 25/25/25 46/54/46 
s 1
f 47/55/47 48/56/48 49/57/49 
s 2
f 50/58/50 48/59/48 47/60/47 
s 4
f 51/61/51 48/59/48 50/58/50 
f 52/62/52 48/59/48 51/61/51 
s 8
f 49/57/49 48/56/48 52/63/52 
s 1
f 28/29/28 53/64/53 54/65/54 29/30/29 
s 2
f 32/33/32 55/66/55 53/67/53 28/34/28 
s 4
f 34/37/34 56/68/56 55/66/55 32/33/32 
f 36/39/36 57/69/57 56/68/56 34/37/34 
s 8
f 29/30/29 54/65/54 57/70/57 36/40/36 
s 1
f 37/42/37 27/28/27 30/31/30 38/43/38 
s 2
f 39/44/39 31/32/31 27/35/27 37/45/37 
s 4
f 40/46/40 33/36/33 31/32/31 39/44/39 
f 41/47/41 35/38/35 33/36/33 40/46/40 
s 8
f 38/43/38 30/31/30 35/41/35 41/48/41 
s 1
f 53/64/53 47/55/47 49/57/49 54/65/54 
s 2
f 55/66/55 50/58/50 47/60/47 53/67/53 
s 4
f 56/68/56 51/61/51 50/58/50 55/66/55 
f 57/69/57 52/62/52 51/61/51 56/68/56 
s 8
f 54/65/54 49/57/49 52/63/52 57/70/57 
# 50 polygons - 10 triangles

