# 3ds Max Wavefront OBJ Exporter v0.97b - (c)2007 guruware
# File Created: 26.01.2018 22:44:50

#
# object Disease_Form_Bean_01
#

v  0.0002 0.1289 -0.0000
v  -0.0001 0.1282 0.0073
v  0.0028 0.1271 0.0063
v  0.0049 0.1262 0.0037
v  0.0057 0.1259 -0.0000
v  0.0049 0.1262 -0.0037
v  0.0028 0.1271 -0.0063
v  -0.0001 0.1282 -0.0073
v  -0.0031 0.1294 -0.0063
v  -0.0053 0.1302 -0.0037
v  -0.0061 0.1306 -0.0000
v  -0.0053 0.1302 0.0037
v  -0.0031 0.1294 0.0063
v  -0.0009 0.1262 0.0141
v  0.0048 0.1241 0.0123
v  0.0088 0.1225 0.0071
v  0.0102 0.1219 0.0000
v  0.0088 0.1225 -0.0071
v  0.0048 0.1241 -0.0123
v  -0.0009 0.1262 -0.0141
v  -0.0068 0.1283 -0.0123
v  -0.0112 0.1299 -0.0071
v  -0.0128 0.1305 -0.0000
v  -0.0112 0.1299 0.0071
v  -0.0068 0.1283 0.0123
v  -0.0038 0.1185 0.0245
v  0.0064 0.1155 0.0212
v  0.0135 0.1132 0.0123
v  0.0160 0.1124 -0.0000
v  0.0135 0.1132 -0.0123
v  0.0064 0.1155 -0.0212
v  -0.0038 0.1185 -0.0245
v  -0.0145 0.1215 -0.0212
v  -0.0227 0.1237 -0.0123
v  -0.0257 0.1245 -0.0000
v  -0.0227 0.1237 0.0123
v  -0.0145 0.1215 0.0212
v  -0.0073 0.1075 0.0283
v  0.0050 0.1049 0.0245
v  0.0135 0.1030 0.0141
v  0.0166 0.1022 -0.0000
v  0.0135 0.1030 -0.0141
v  0.0050 0.1049 -0.0245
v  -0.0073 0.1075 -0.0283
v  -0.0202 0.1100 -0.0245
v  -0.0300 0.1118 -0.0141
v  -0.0337 0.1125 -0.0000
v  -0.0300 0.1118 0.0141
v  -0.0202 0.1100 0.0245
v  -0.0127 0.0793 0.0283
v  0.0002 0.0784 0.0245
v  0.0094 0.0778 0.0141
v  0.0126 0.0775 -0.0000
v  0.0094 0.0778 -0.0141
v  0.0002 0.0784 -0.0245
v  -0.0127 0.0793 -0.0283
v  -0.0261 0.0801 -0.0245
v  -0.0363 0.0807 -0.0141
v  -0.0400 0.0809 -0.0000
v  -0.0363 0.0807 0.0141
v  -0.0261 0.0801 0.0245
v  -0.0074 0.0223 0.0283
v  -0.0039 0.0109 0.0245
v  0.0062 0.0133 0.0212
v  0.0048 0.0243 0.0245
v  0.0132 0.0150 0.0123
v  0.0133 0.0257 0.0141
v  0.0157 0.0156 -0.0000
v  0.0163 0.0262 -0.0000
v  0.0132 0.0150 -0.0123
v  0.0133 0.0257 -0.0141
v  0.0062 0.0133 -0.0212
v  0.0048 0.0243 -0.0245
v  -0.0039 0.0109 -0.0245
v  -0.0074 0.0223 -0.0283
v  -0.0145 0.0084 -0.0212
v  -0.0202 0.0201 -0.0245
v  -0.0227 0.0064 -0.0123
v  -0.0300 0.0184 -0.0141
v  -0.0257 0.0057 -0.0000
v  -0.0337 0.0178 -0.0000
v  -0.0227 0.0064 0.0123
v  -0.0300 0.0184 0.0141
v  -0.0145 0.0084 0.0212
v  -0.0202 0.0201 0.0245
v  -0.0011 0.0029 0.0141
v  0.0046 0.0046 0.0123
v  0.0085 0.0058 0.0071
v  0.0099 0.0062 -0.0000
v  0.0085 0.0058 -0.0071
v  0.0046 0.0046 -0.0123
v  -0.0011 0.0029 -0.0141
v  -0.0069 0.0011 -0.0123
v  -0.0113 -0.0002 -0.0071
v  -0.0129 -0.0007 -0.0000
v  -0.0113 -0.0002 0.0071
v  -0.0069 0.0011 0.0123
v  -0.0003 0.0007 0.0073
v  0.0026 0.0017 0.0063
v  0.0047 0.0023 0.0037
v  0.0054 0.0026 -0.0000
v  0.0047 0.0023 -0.0037
v  0.0026 0.0017 -0.0063
v  -0.0003 0.0007 -0.0073
v  -0.0032 -0.0002 -0.0063
v  -0.0054 -0.0009 -0.0037
v  -0.0062 -0.0012 -0.0000
v  -0.0054 -0.0009 0.0037
v  -0.0032 -0.0002 0.0063
v  -0.0000 0.0000 0.0000
v  -0.0127 0.0507 0.0283
v  0.0002 0.0512 0.0245
v  0.0093 0.0515 0.0141
v  0.0126 0.0517 -0.0000
v  0.0093 0.0515 -0.0141
v  0.0002 0.0512 -0.0245
v  -0.0127 0.0507 -0.0283
v  -0.0261 0.0501 -0.0245
v  -0.0363 0.0496 -0.0141
v  -0.0400 0.0494 -0.0000
v  -0.0363 0.0496 0.0141
v  -0.0261 0.0501 0.0245
# 122 vertices

vn 0.4246 0.9054 0.0000
vn 0.4097 0.8760 0.2544
vn 0.5402 0.8163 0.2047
vn 0.6229 0.7744 0.1106
vn 0.6504 0.7596 0.0000
vn 0.6229 0.7744 -0.1106
vn 0.5402 0.8163 -0.2047
vn 0.4097 0.8760 -0.2544
vn 0.2654 0.9361 -0.2310
vn 0.1570 0.9782 -0.1358
vn 0.1177 0.9930 0.0000
vn 0.1570 0.9782 0.1358
vn 0.2654 0.9361 0.2310
vn 0.3329 0.7674 0.5480
vn 0.6109 0.6640 0.4312
vn 0.7753 0.5900 0.2254
vn 0.8258 0.5639 -0.0000
vn 0.7753 0.5900 -0.2254
vn 0.6109 0.6640 -0.4312
vn 0.3329 0.7674 -0.5480
vn 0.0232 0.8663 -0.4991
vn -0.2044 0.9340 -0.2930
vn -0.2863 0.9582 0.0000
vn -0.2044 0.9340 0.2930
vn 0.0232 0.8663 0.4991
vn 0.1622 0.4739 0.8655
vn 0.6136 0.3516 0.7070
vn 0.8902 0.2670 0.3691
vn 0.9709 0.2396 -0.0000
vn 0.8902 0.2670 -0.3691
vn 0.6136 0.3516 -0.7070
vn 0.1622 0.4739 -0.8655
vn -0.2925 0.5876 -0.7544
vn -0.6068 0.6656 -0.4344
vn -0.7196 0.6944 0.0000
vn -0.6068 0.6656 0.4344
vn -0.2925 0.5876 0.7544
vn 0.0285 0.1296 0.9912
vn 0.5549 0.0297 0.8314
vn 0.8961 -0.0293 0.4429
vn 0.9990 -0.0451 -0.0000
vn 0.8961 -0.0293 -0.4429
vn 0.5549 0.0297 -0.8314
vn 0.0285 0.1296 -0.9912
vn -0.4760 0.2306 -0.8487
vn -0.8199 0.3019 -0.4864
vn -0.9446 0.3281 -0.0000
vn -0.8199 0.3019 0.4864
vn -0.4760 0.2306 0.8487
vn -0.0092 0.0008 1.0000
vn 0.5244 -0.0397 0.8506
vn 0.8839 -0.0615 0.4637
vn 0.9978 -0.0667 0.0000
vn 0.8839 -0.0615 -0.4637
vn 0.5244 -0.0397 -0.8506
vn -0.0092 0.0008 -1.0000
vn -0.5181 0.0433 -0.8542
vn -0.8689 0.0728 -0.4895
vn -0.9965 0.0832 -0.0000
vn -0.8689 0.0728 0.4895
vn -0.5181 0.0433 0.8542
vn 0.0243 -0.1271 0.9916
vn 0.1369 -0.4695 0.8723
vn 0.6000 -0.3541 0.7174
vn 0.5562 -0.0307 0.8305
vn 0.8859 -0.2736 0.3747
vn 0.8980 0.0239 0.4393
vn 0.9690 -0.2470 -0.0000
vn 0.9993 0.0377 -0.0000
vn 0.8859 -0.2736 -0.3747
vn 0.8980 0.0239 -0.4393
vn 0.6000 -0.3541 -0.7174
vn 0.5562 -0.0307 -0.8305
vn 0.1369 -0.4695 -0.8723
vn 0.0243 -0.1271 -0.9916
vn -0.3172 -0.5776 -0.7522
vn -0.4813 -0.2272 -0.8466
vn -0.6230 -0.6531 -0.4306
vn -0.8221 -0.2990 -0.4844
vn -0.7318 -0.6815 -0.0000
vn -0.9455 -0.3257 -0.0000
vn -0.6230 -0.6531 0.4306
vn -0.8221 -0.2990 0.4844
vn -0.3172 -0.5776 0.7522
vn -0.4813 -0.2272 0.8466
vn 0.2803 -0.7761 0.5648
vn 0.5775 -0.6799 0.4520
vn 0.7574 -0.6081 0.2380
vn 0.8132 -0.5820 -0.0000
vn 0.7574 -0.6081 -0.2380
vn 0.5775 -0.6799 -0.4520
vn 0.2803 -0.7761 -0.5648
vn -0.0348 -0.8640 -0.5022
vn -0.2546 -0.9226 -0.2897
vn -0.3315 -0.9435 -0.0000
vn -0.2546 -0.9226 0.2897
vn -0.0348 -0.8640 0.5022
vn 0.3469 -0.8989 0.2678
vn 0.4902 -0.8440 0.2178
vn 0.5818 -0.8048 0.1178
vn 0.6121 -0.7908 0.0000
vn 0.5818 -0.8048 -0.1178
vn 0.4902 -0.8440 -0.2178
vn 0.3469 -0.8989 -0.2678
vn 0.1943 -0.9517 -0.2379
vn 0.0858 -0.9868 -0.1371
vn 0.0478 -0.9989 -0.0000
vn 0.0858 -0.9868 0.1371
vn 0.1943 -0.9517 0.2379
vn 0.3613 -0.9325 0.0000
vn -0.0088 -0.0011 1.0000
vn 0.5263 0.0375 0.8495
vn 0.8852 0.0567 0.4618
vn 0.9982 0.0606 -0.0000
vn 0.8852 0.0567 -0.4618
vn 0.5263 0.0375 -0.8495
vn -0.0088 -0.0011 -1.0000
vn -0.5186 -0.0429 -0.8540
vn -0.8691 -0.0725 -0.4893
vn -0.9965 -0.0830 -0.0000
vn -0.8691 -0.0725 0.4893
vn -0.5186 -0.0429 0.8540
# 122 vertex normals

vt 0.5000 0.5000 0.0000
vt 0.6294 0.5000 0.0000
vt 0.6121 0.5647 0.0000
vt 0.5647 0.6121 0.0000
vt 0.5000 0.6294 0.0000
vt 0.4353 0.6121 0.0000
vt 0.3879 0.5647 0.0000
vt 0.3706 0.5000 0.0000
vt 0.3879 0.4353 0.0000
vt 0.4353 0.3879 0.0000
vt 0.5000 0.3706 0.0000
vt 0.5647 0.3879 0.0000
vt 0.6121 0.4353 0.0000
vt 0.7500 0.5000 0.0000
vt 0.7165 0.6250 0.0000
vt 0.6250 0.7165 0.0000
vt 0.5000 0.7500 0.0000
vt 0.3750 0.7165 0.0000
vt 0.2835 0.6250 0.0000
vt 0.2500 0.5000 0.0000
vt 0.2835 0.3750 0.0000
vt 0.3750 0.2835 0.0000
vt 0.5000 0.2500 0.0000
vt 0.6250 0.2835 0.0000
vt 0.7165 0.3750 0.0000
vt 0.9330 0.5000 0.0000
vt 0.8750 0.7165 0.0000
vt 0.7165 0.8750 0.0000
vt 0.5000 0.9330 0.0000
vt 0.2835 0.8750 0.0000
vt 0.1250 0.7165 0.0000
vt 0.0670 0.5000 0.0000
vt 0.1250 0.2835 0.0000
vt 0.2835 0.1250 0.0000
vt 0.5000 0.0670 0.0000
vt 0.7165 0.1250 0.0000
vt 0.8750 0.2835 0.0000
vt 1.0000 0.5000 0.0000
vt 0.9330 0.7500 0.0000
vt 0.7500 0.9330 0.0000
vt 0.5000 1.0000 0.0000
vt 0.2500 0.9330 0.0000
vt 0.0670 0.7500 0.0000
vt 0.0000 0.5000 0.0000
vt 0.0670 0.2500 0.0000
vt 0.2500 0.0670 0.0000
vt 0.5000 0.0000 0.0000
vt 0.7500 0.0670 0.0000
vt 0.9330 0.2500 0.0000
vt 0.0000 1.0000 0.0000
vt 0.0000 0.6657 0.0000
vt 0.0833 0.6657 0.0000
vt 0.0833 1.0000 0.0000
vt 0.1667 0.6657 0.0000
vt 0.1667 1.0000 0.0000
vt 0.2500 0.6657 0.0000
vt 0.2500 1.0000 0.0000
vt 0.3333 0.6657 0.0000
vt 0.3333 1.0000 0.0000
vt 0.4167 0.6657 0.0000
vt 0.4167 1.0000 0.0000
vt 0.5000 0.6657 0.0000
vt 0.5833 0.6657 0.0000
vt 0.5833 1.0000 0.0000
vt 0.6667 0.6657 0.0000
vt 0.6667 1.0000 0.0000
vt 0.7500 0.6657 0.0000
vt 0.7500 1.0000 0.0000
vt 0.8333 0.6657 0.0000
vt 0.8333 1.0000 0.0000
vt 0.9167 0.6657 0.0000
vt 0.9167 1.0000 0.0000
vt 1.0000 0.6657 0.0000
vt 1.0000 1.0000 0.0000
vt 0.0000 0.3343 0.0000
vt 0.0000 0.0000 0.0000
vt 0.0833 0.0000 0.0000
vt 0.0833 0.3343 0.0000
vt 0.1667 0.0000 0.0000
vt 0.1667 0.3343 0.0000
vt 0.2500 0.0000 0.0000
vt 0.2500 0.3343 0.0000
vt 0.3333 0.0000 0.0000
vt 0.3333 0.3343 0.0000
vt 0.4167 0.0000 0.0000
vt 0.4167 0.3343 0.0000
vt 0.5000 0.3343 0.0000
vt 0.5833 0.0000 0.0000
vt 0.5833 0.3343 0.0000
vt 0.6667 0.0000 0.0000
vt 0.6667 0.3343 0.0000
vt 0.7500 0.0000 0.0000
vt 0.7500 0.3343 0.0000
vt 0.8333 0.0000 0.0000
vt 0.8333 0.3343 0.0000
vt 0.9167 0.0000 0.0000
vt 0.9167 0.3343 0.0000
vt 1.0000 0.0000 0.0000
vt 1.0000 0.3343 0.0000
# 99 texture coords

o Disease_Form_Bean_01
g Disease_Form_Bean_01
s 1
f 1/1/1 2/2/2 3/3/3 
f 1/1/1 3/3/3 4/4/4 
f 1/1/1 4/4/4 5/5/5 
f 1/1/1 5/5/5 6/6/6 
f 1/1/1 6/6/6 7/7/7 
f 1/1/1 7/7/7 8/8/8 
f 1/1/1 8/8/8 9/9/9 
f 1/1/1 9/9/9 10/10/10 
f 1/1/1 10/10/10 11/11/11 
f 1/1/1 11/11/11 12/12/12 
f 1/1/1 12/12/12 13/13/13 
f 1/1/1 13/13/13 2/2/2 
f 2/2/2 14/14/14 15/15/15 3/3/3 
f 3/3/3 15/15/15 16/16/16 4/4/4 
f 4/4/4 16/16/16 17/17/17 5/5/5 
f 5/5/5 17/17/17 18/18/18 6/6/6 
f 6/6/6 18/18/18 19/19/19 7/7/7 
f 7/7/7 19/19/19 20/20/20 8/8/8 
f 8/8/8 20/20/20 21/21/21 9/9/9 
f 9/9/9 21/21/21 22/22/22 10/10/10 
f 10/10/10 22/22/22 23/23/23 11/11/11 
f 11/11/11 23/23/23 24/24/24 12/12/12 
f 12/12/12 24/24/24 25/25/25 13/13/13 
f 13/13/13 25/25/25 14/14/14 2/2/2 
f 14/14/14 26/26/26 27/27/27 15/15/15 
f 15/15/15 27/27/27 28/28/28 16/16/16 
f 16/16/16 28/28/28 29/29/29 17/17/17 
f 17/17/17 29/29/29 30/30/30 18/18/18 
f 18/18/18 30/30/30 31/31/31 19/19/19 
f 19/19/19 31/31/31 32/32/32 20/20/20 
f 20/20/20 32/32/32 33/33/33 21/21/21 
f 21/21/21 33/33/33 34/34/34 22/22/22 
f 22/22/22 34/34/34 35/35/35 23/23/23 
f 23/23/23 35/35/35 36/36/36 24/24/24 
f 24/24/24 36/36/36 37/37/37 25/25/25 
f 25/25/25 37/37/37 26/26/26 14/14/14 
f 26/26/26 38/38/38 39/39/39 27/27/27 
f 27/27/27 39/39/39 40/40/40 28/28/28 
f 28/28/28 40/40/40 41/41/41 29/29/29 
f 29/29/29 41/41/41 42/42/42 30/30/30 
f 30/30/30 42/42/42 43/43/43 31/31/31 
f 31/31/31 43/43/43 44/44/44 32/32/32 
f 32/32/32 44/44/44 45/45/45 33/33/33 
f 33/33/33 45/45/45 46/46/46 34/34/34 
f 34/34/34 46/46/46 47/47/47 35/35/35 
f 35/35/35 47/47/47 48/48/48 36/36/36 
f 36/36/36 48/48/48 49/49/49 37/37/37 
f 37/37/37 49/49/49 38/38/38 26/26/26 
f 38/50/38 50/51/50 51/52/51 39/53/39 
f 39/53/39 51/52/51 52/54/52 40/55/40 
f 40/55/40 52/54/52 53/56/53 41/57/41 
f 41/57/41 53/56/53 54/58/54 42/59/42 
f 42/59/42 54/58/54 55/60/55 43/61/43 
f 43/61/43 55/60/55 56/62/56 44/41/44 
f 44/41/44 56/62/56 57/63/57 45/64/45 
f 45/64/45 57/63/57 58/65/58 46/66/46 
f 46/66/46 58/65/58 59/67/59 47/68/47 
f 47/68/47 59/67/59 60/69/60 48/70/48 
f 48/70/48 60/69/60 61/71/61 49/72/49 
f 49/72/49 61/71/61 50/73/50 38/74/38 
f 62/38/62 63/26/63 64/27/64 65/39/65 
f 65/39/65 64/27/64 66/28/66 67/40/67 
f 67/40/67 66/28/66 68/29/68 69/41/69 
f 69/41/69 68/29/68 70/30/70 71/42/71 
f 71/42/71 70/30/70 72/31/72 73/43/73 
f 73/43/73 72/31/72 74/32/74 75/44/75 
f 75/44/75 74/32/74 76/33/76 77/45/77 
f 77/45/77 76/33/76 78/34/78 79/46/79 
f 79/46/79 78/34/78 80/35/80 81/47/81 
f 81/47/81 80/35/80 82/36/82 83/48/83 
f 83/48/83 82/36/82 84/37/84 85/49/85 
f 85/49/85 84/37/84 63/26/63 62/38/62 
f 63/26/63 86/14/86 87/15/87 64/27/64 
f 64/27/64 87/15/87 88/16/88 66/28/66 
f 66/28/66 88/16/88 89/17/89 68/29/68 
f 68/29/68 89/17/89 90/18/90 70/30/70 
f 70/30/70 90/18/90 91/19/91 72/31/72 
f 72/31/72 91/19/91 92/20/92 74/32/74 
f 74/32/74 92/20/92 93/21/93 76/33/76 
f 76/33/76 93/21/93 94/22/94 78/34/78 
f 78/34/78 94/22/94 95/23/95 80/35/80 
f 80/35/80 95/23/95 96/24/96 82/36/82 
f 82/36/82 96/24/96 97/25/97 84/37/84 
f 84/37/84 97/25/97 86/14/86 63/26/63 
f 86/14/86 98/2/98 99/3/99 87/15/87 
f 87/15/87 99/3/99 100/4/100 88/16/88 
f 88/16/88 100/4/100 101/5/101 89/17/89 
f 89/17/89 101/5/101 102/6/102 90/18/90 
f 90/18/90 102/6/102 103/7/103 91/19/91 
f 91/19/91 103/7/103 104/8/104 92/20/92 
f 92/20/92 104/8/104 105/9/105 93/21/93 
f 93/21/93 105/9/105 106/10/106 94/22/94 
f 94/22/94 106/10/106 107/11/107 95/23/95 
f 95/23/95 107/11/107 108/12/108 96/24/96 
f 96/24/96 108/12/108 109/13/109 97/25/97 
f 97/25/97 109/13/109 98/2/98 86/14/86 
f 98/2/98 110/1/110 99/3/99 
f 99/3/99 110/1/110 100/4/100 
f 100/4/100 110/1/110 101/5/101 
f 101/5/101 110/1/110 102/6/102 
f 102/6/102 110/1/110 103/7/103 
f 103/7/103 110/1/110 104/8/104 
f 104/8/104 110/1/110 105/9/105 
f 105/9/105 110/1/110 106/10/106 
f 106/10/106 110/1/110 107/11/107 
f 107/11/107 110/1/110 108/12/108 
f 108/12/108 110/1/110 109/13/109 
f 109/13/109 110/1/110 98/2/98 
f 111/75/111 62/76/62 65/77/65 112/78/112 
f 112/78/112 65/77/65 67/79/67 113/80/113 
f 113/80/113 67/79/67 69/81/69 114/82/114 
f 114/82/114 69/81/69 71/83/71 115/84/115 
f 115/84/115 71/83/71 73/85/73 116/86/116 
f 116/86/116 73/85/73 75/47/75 117/87/117 
f 117/87/117 75/47/75 77/88/77 118/89/118 
f 118/89/118 77/88/77 79/90/79 119/91/119 
f 119/91/119 79/90/79 81/92/81 120/93/120 
f 120/93/120 81/92/81 83/94/83 121/95/121 
f 121/95/121 83/94/83 85/96/85 122/97/122 
f 122/97/122 85/96/85 62/98/62 111/99/111 
f 50/51/50 111/75/111 112/78/112 51/52/51 
f 51/52/51 112/78/112 113/80/113 52/54/52 
f 52/54/52 113/80/113 114/82/114 53/56/53 
f 53/56/53 114/82/114 115/84/115 54/58/54 
f 54/58/54 115/84/115 116/86/116 55/60/55 
f 55/60/55 116/86/116 117/87/117 56/62/56 
f 56/62/56 117/87/117 118/89/118 57/63/57 
f 57/63/57 118/89/118 119/91/119 58/65/58 
f 58/65/58 119/91/119 120/93/120 59/67/59 
f 59/67/59 120/93/120 121/95/121 60/69/60 
f 60/69/60 121/95/121 122/97/122 61/71/61 
f 61/71/61 122/97/122 111/99/111 50/73/50 
# 108 polygons - 24 triangles

