# 3ds Max Wavefront OBJ Exporter v0.97b - (c)2007 guruware
# File Created: 26.01.2018 22:44:27

#
# object Disease_Form_Square_01
#

v  -0.0400 0.0000 0.0400
v  -0.0400 0.0000 -0.0400
v  0.0400 0.0000 -0.0400
v  0.0400 0.0000 0.0400
v  -0.0400 0.1000 0.0400
v  0.0400 0.1000 0.0400
v  0.0400 0.1000 -0.0400
v  -0.0400 0.1000 -0.0400
v  -0.0400 0.0100 0.0500
v  0.0400 0.0100 0.0500
v  0.0400 0.0900 0.0500
v  -0.0400 0.0900 0.0500
v  0.0500 0.0100 0.0400
v  0.0500 0.0100 -0.0400
v  0.0500 0.0900 -0.0400
v  0.0500 0.0900 0.0400
v  0.0400 0.0100 -0.0500
v  -0.0400 0.0100 -0.0500
v  -0.0400 0.0900 -0.0500
v  0.0400 0.0900 -0.0500
v  -0.0500 0.0100 -0.0400
v  -0.0500 0.0100 0.0400
v  -0.0500 0.0900 0.0400
v  -0.0500 0.0900 -0.0400
v  -0.0456 0.0044 0.0475
v  -0.0400 0.0025 0.0475
v  0.0456 0.0025 0.0456
v  0.0400 0.0025 0.0475
v  -0.0475 0.0044 -0.0456
v  -0.0475 0.0025 -0.0400
v  0.0456 0.0025 -0.0456
v  0.0475 0.0025 -0.0400
v  -0.0456 0.0956 0.0475
v  -0.0475 0.0900 0.0475
v  0.0475 0.0956 0.0456
v  0.0475 0.0900 0.0475
v  -0.0475 0.0956 -0.0456
v  -0.0475 0.0900 -0.0475
v  0.0456 0.0956 -0.0475
v  0.0475 0.0900 -0.0475
v  -0.0475 0.0025 0.0400
v  -0.0400 0.0025 -0.0475
v  0.0400 0.0025 -0.0475
v  0.0475 0.0025 0.0400
v  -0.0400 0.0975 0.0475
v  0.0400 0.0975 0.0475
v  0.0475 0.0975 0.0400
v  0.0475 0.0975 -0.0400
v  0.0400 0.0975 -0.0475
v  -0.0400 0.0975 -0.0475
v  -0.0475 0.0975 -0.0400
v  -0.0475 0.0975 0.0400
v  0.0475 0.0100 0.0475
v  -0.0475 0.0100 0.0475
v  0.0475 0.0100 -0.0475
v  -0.0475 0.0100 -0.0475
# 56 vertices

vn -0.1559 -0.9754 0.1559
vn -0.1559 -0.9754 -0.1559
vn 0.1334 -0.9820 -0.1334
vn 0.1334 -0.9820 0.1334
vn -0.1559 0.9754 0.1559
vn 0.1559 0.9754 0.1559
vn 0.1559 0.9754 -0.1559
vn -0.1559 0.9754 -0.1559
vn -0.1334 -0.1334 0.9820
vn 0.1559 -0.1559 0.9754
vn 0.1559 0.1559 0.9754
vn -0.1334 0.1334 0.9820
vn 0.9754 -0.1559 0.1559
vn 0.9754 -0.1559 -0.1559
vn 0.9754 0.1559 -0.1559
vn 0.9820 0.1334 0.1334
vn 0.1559 -0.1559 -0.9754
vn -0.1559 -0.1559 -0.9754
vn -0.1559 0.1559 -0.9754
vn 0.1334 0.1334 -0.9820
vn -0.9820 -0.1334 -0.1334
vn -0.9754 -0.1559 0.1559
vn -0.9754 0.1559 0.1559
vn -0.9820 0.1334 -0.1334
vn -0.5310 -0.5310 0.6604
vn -0.1179 -0.7215 0.6823
vn 0.5310 -0.6604 0.5310
vn 0.1179 -0.6824 0.7214
vn -0.6604 -0.5310 -0.5310
vn -0.6823 -0.7215 -0.1179
vn 0.5310 -0.6604 -0.5310
vn 0.7214 -0.6824 -0.1179
vn -0.5310 0.5310 0.6604
vn -0.7215 0.1179 0.6823
vn 0.6604 0.5310 0.5310
vn 0.6823 0.1179 0.7215
vn -0.6604 0.5310 -0.5310
vn -0.6823 0.1179 -0.7215
vn 0.5310 0.5310 -0.6604
vn 0.7215 0.1179 -0.6823
vn -0.6978 -0.6978 0.1616
vn -0.1616 -0.6978 -0.6978
vn 0.1179 -0.6824 -0.7214
vn 0.7214 -0.6824 0.1179
vn -0.1179 0.7215 0.6823
vn 0.1616 0.6978 0.6978
vn 0.6823 0.7215 0.1179
vn 0.6978 0.6978 -0.1616
vn 0.1179 0.7215 -0.6823
vn -0.1616 0.6978 -0.6978
vn -0.6823 0.7215 -0.1179
vn -0.6978 0.6978 0.1616
vn 0.6978 -0.1616 0.6978
vn -0.7215 -0.1179 0.6823
vn 0.6978 -0.1616 -0.6978
vn -0.6823 -0.1179 -0.7215
# 56 vertex normals

vt 0.9000 0.1000 0.0000
vt 0.9000 0.9000 0.0000
vt 0.1000 0.9000 0.0000
vt 0.1000 0.1000 0.0000
vt 0.0000 0.0000 0.0000
vt 0.0000 1.0000 0.0000
vt 0.9000 0.2414 0.0000
vt 0.9000 0.1707 0.0000
vt 0.1000 0.1707 0.0000
vt 0.1000 0.2414 0.0000
vt 0.1000 0.7586 0.0000
vt 0.1000 0.8293 0.0000
vt 0.9000 0.8293 0.0000
vt 0.9000 0.7586 0.0000
vt 0.2414 0.1000 0.0000
vt 0.1707 0.1000 0.0000
vt 0.1707 0.9000 0.0000
vt 0.2414 0.9000 0.0000
vt 0.7586 0.9000 0.0000
vt 0.8293 0.9000 0.0000
vt 0.8293 0.1000 0.0000
vt 0.7586 0.1000 0.0000
vt 0.0194 0.0677 0.0000
vt -0.0225 0.1707 0.0000
vt -0.0112 0.0500 0.0000
vt -0.0225 0.0293 0.0000
vt 0.0194 0.9677 0.0000
vt -0.0225 0.9707 0.0000
vt -0.0112 0.9500 0.0000
vt -0.0225 0.8293 0.0000
# 30 texture coords

o Disease_Form_Square_01
g Disease_Form_Square_01
s 1
f 1/1/1 2/2/2 3/3/3 4/4/4 
f 5/4/5 6/1/6 7/2/7 8/3/8 
f 9/4/9 10/1/10 11/2/11 12/3/12 
f 13/4/13 14/1/14 15/2/15 16/3/16 
f 17/4/17 18/1/18 19/2/19 20/3/20 
f 21/4/21 22/1/22 23/2/23 24/3/24 
f 9/4/9 25/5/25 26/5/26 
f 4/4/4 27/5/27 28/5/28 
f 21/4/21 29/5/29 30/5/30 
f 3/3/3 31/6/31 32/6/32 
f 12/3/12 33/6/33 34/6/34 
f 16/3/16 35/6/35 36/6/36 
f 24/3/24 37/6/37 38/6/38 
f 20/3/20 39/6/39 40/6/40 
f 1/7/1 41/8/41 30/9/30 2/10/2 
f 2/7/2 42/8/42 43/9/43 3/10/3 
f 3/7/3 32/8/32 44/9/44 4/10/4 
f 4/7/4 28/8/28 26/9/26 1/10/1 
f 5/11/5 45/12/45 46/13/46 6/14/6 
f 6/11/6 47/12/47 48/13/48 7/14/7 
f 7/11/7 49/12/49 50/13/50 8/14/8 
f 8/11/8 51/12/51 52/13/52 5/14/5 
f 10/15/10 53/16/53 36/17/36 11/18/11 
f 12/19/12 34/20/34 54/21/54 9/22/9 
f 14/15/14 55/16/55 40/17/40 15/18/15 
f 18/15/18 56/16/56 38/17/38 19/18/19 
f 9/4/9 54/23/54 25/5/25 
f 54/23/54 22/24/22 41/25/41 25/5/25 
f 25/5/25 41/25/41 1/26/1 26/5/26 
f 4/4/4 44/23/44 27/5/27 
f 44/23/44 13/24/13 53/25/53 27/5/27 
f 27/5/27 53/25/53 10/26/10 28/5/28 
f 21/4/21 56/23/56 29/5/29 
f 56/23/56 18/24/18 42/25/42 29/5/29 
f 29/5/29 42/25/42 2/26/2 30/5/30 
f 3/3/3 43/27/43 31/6/31 
f 43/27/43 17/28/17 55/29/55 31/6/31 
f 31/6/31 55/29/55 14/30/14 32/6/32 
f 12/3/12 45/27/45 33/6/33 
f 45/27/45 5/28/5 52/29/52 33/6/33 
f 33/6/33 52/29/52 23/30/23 34/6/34 
f 16/3/16 47/27/47 35/6/35 
f 47/27/47 6/28/6 46/29/46 35/6/35 
f 35/6/35 46/29/46 11/30/11 36/6/36 
f 24/3/24 51/27/51 37/6/37 
f 51/27/51 8/28/8 50/29/50 37/6/37 
f 37/6/37 50/29/50 19/30/19 38/6/38 
f 20/3/20 49/27/49 39/6/39 
f 49/27/49 7/28/7 48/29/48 39/6/39 
f 39/6/39 48/29/48 15/30/15 40/6/40 
f 41/8/41 22/1/22 21/4/21 30/9/30 
f 42/8/42 18/1/18 17/4/17 43/9/43 
f 32/8/32 14/1/14 13/4/13 44/9/44 
f 28/8/28 10/1/10 9/4/9 26/9/26 
f 45/12/45 12/3/12 11/2/11 46/13/46 
f 47/12/47 16/3/16 15/2/15 48/13/48 
f 49/12/49 20/3/20 19/2/19 50/13/50 
f 51/12/51 24/3/24 23/2/23 52/13/52 
f 53/16/53 13/4/13 16/3/16 36/17/36 
f 34/20/34 23/2/23 22/1/22 54/21/54 
f 55/16/55 17/4/17 20/3/20 40/17/40 
f 56/16/56 21/4/21 24/3/24 38/17/38 
# 46 polygons - 16 triangles

