# 3ds Max Wavefront OBJ Exporter v0.97b - (c)2007 guruware
# File Created: 27.01.2018 01:18:37

#
# object TestTube_01
#

v  -0.0339 0.0330 0.0196
v  -0.0339 0.4439 0.0196
v  -0.0391 0.4439 -0.0000
v  -0.0391 0.0330 -0.0000
v  -0.0196 0.0330 0.0339
v  -0.0196 0.4439 0.0339
v  -0.0000 0.0330 0.0391
v  -0.0000 0.4439 0.0391
v  0.0196 0.0330 0.0339
v  0.0196 0.4439 0.0339
v  0.0339 0.0330 0.0196
v  0.0339 0.4439 0.0196
v  0.0391 0.0330 0.0000
v  0.0391 0.4439 -0.0000
v  0.0339 0.0330 -0.0196
v  0.0339 0.4439 -0.0196
v  0.0196 0.0330 -0.0339
v  0.0196 0.4439 -0.0339
v  0.0000 0.0330 -0.0391
v  -0.0000 0.4439 -0.0391
v  -0.0196 0.0330 -0.0339
v  -0.0196 0.4439 -0.0339
v  -0.0339 0.0330 -0.0196
v  -0.0339 0.4439 -0.0196
v  -0.0328 0.0233 0.0189
v  -0.0378 0.0233 -0.0000
v  -0.0189 0.0233 0.0328
v  -0.0000 0.0233 0.0378
v  0.0189 0.0233 0.0328
v  0.0328 0.0233 0.0189
v  0.0378 0.0233 0.0000
v  0.0328 0.0233 -0.0189
v  0.0189 0.0233 -0.0328
v  0.0000 0.0233 -0.0378
v  -0.0189 0.0233 -0.0328
v  -0.0328 0.0233 -0.0189
v  -0.0294 0.0139 0.0170
v  -0.0339 0.0139 -0.0000
v  -0.0170 0.0139 0.0294
v  -0.0000 0.0139 0.0339
v  0.0170 0.0139 0.0294
v  0.0294 0.0139 0.0170
v  0.0339 0.0139 0.0000
v  0.0294 0.0139 -0.0170
v  0.0170 0.0139 -0.0294
v  0.0000 0.0139 -0.0339
v  -0.0170 0.0139 -0.0294
v  -0.0294 0.0139 -0.0170
v  -0.0240 0.0058 0.0139
v  -0.0277 0.0058 -0.0000
v  -0.0139 0.0058 0.0240
v  -0.0000 0.0058 0.0277
v  0.0139 0.0058 0.0240
v  0.0240 0.0058 0.0139
v  0.0277 0.0058 0.0000
v  0.0240 0.0058 -0.0139
v  0.0139 0.0058 -0.0240
v  0.0000 0.0058 -0.0277
v  -0.0139 0.0058 -0.0240
v  -0.0240 0.0058 -0.0139
v  -0.0170 -0.0004 0.0098
v  -0.0197 -0.0004 -0.0000
v  -0.0098 -0.0004 0.0170
v  -0.0000 -0.0004 0.0197
v  0.0098 -0.0004 0.0170
v  0.0170 -0.0004 0.0098
v  0.0197 -0.0004 0.0000
v  0.0170 -0.0004 -0.0098
v  0.0098 -0.0004 -0.0170
v  0.0000 -0.0004 -0.0197
v  -0.0098 -0.0004 -0.0170
v  -0.0170 -0.0004 -0.0098
v  -0.0089 -0.0044 0.0051
v  -0.0102 -0.0044 -0.0000
v  -0.0051 -0.0044 0.0089
v  -0.0000 -0.0044 0.0102
v  0.0051 -0.0044 0.0089
v  0.0089 -0.0044 0.0051
v  0.0102 -0.0044 0.0000
v  0.0089 -0.0044 -0.0051
v  0.0051 -0.0044 -0.0089
v  0.0000 -0.0044 -0.0102
v  -0.0051 -0.0044 -0.0089
v  -0.0089 -0.0044 -0.0051
v  0.0000 -0.0057 0.0000
v  -0.0334 0.4439 -0.0000
v  -0.0289 0.4439 0.0167
v  -0.0289 0.0334 0.0167
v  -0.0334 0.0334 -0.0000
v  -0.0167 0.4439 0.0289
v  -0.0167 0.0334 0.0289
v  -0.0000 0.4439 0.0334
v  -0.0000 0.0334 0.0334
v  0.0167 0.4439 0.0289
v  0.0167 0.0334 0.0289
v  0.0289 0.4439 0.0167
v  0.0289 0.0334 0.0167
v  0.0334 0.4439 -0.0000
v  0.0334 0.0334 0.0000
v  0.0289 0.4439 -0.0167
v  0.0289 0.0334 -0.0167
v  0.0167 0.4439 -0.0289
v  0.0167 0.0334 -0.0289
v  -0.0000 0.4439 -0.0334
v  0.0000 0.0334 -0.0334
v  -0.0167 0.4439 -0.0289
v  -0.0167 0.0334 -0.0289
v  -0.0289 0.4439 -0.0167
v  -0.0289 0.0334 -0.0167
v  -0.0280 0.0248 0.0161
v  -0.0323 0.0248 -0.0000
v  -0.0161 0.0248 0.0280
v  -0.0000 0.0248 0.0323
v  0.0161 0.0248 0.0280
v  0.0280 0.0248 0.0161
v  0.0323 0.0248 0.0000
v  0.0280 0.0248 -0.0161
v  0.0161 0.0248 -0.0280
v  0.0000 0.0248 -0.0323
v  -0.0161 0.0248 -0.0280
v  -0.0280 0.0248 -0.0161
v  -0.0251 0.0167 0.0145
v  -0.0289 0.0167 -0.0000
v  -0.0145 0.0167 0.0251
v  -0.0000 0.0167 0.0289
v  0.0145 0.0167 0.0251
v  0.0251 0.0167 0.0145
v  0.0289 0.0167 0.0000
v  0.0251 0.0167 -0.0145
v  0.0145 0.0167 -0.0251
v  0.0000 0.0167 -0.0289
v  -0.0145 0.0167 -0.0251
v  -0.0251 0.0167 -0.0145
v  -0.0205 0.0098 0.0118
v  -0.0236 0.0098 -0.0000
v  -0.0118 0.0098 0.0205
v  -0.0000 0.0098 0.0236
v  0.0118 0.0098 0.0205
v  0.0205 0.0098 0.0118
v  0.0236 0.0098 0.0000
v  0.0205 0.0098 -0.0118
v  0.0118 0.0098 -0.0205
v  0.0000 0.0098 -0.0236
v  -0.0118 0.0098 -0.0205
v  -0.0205 0.0098 -0.0118
v  -0.0145 0.0045 0.0084
v  -0.0167 0.0045 -0.0000
v  -0.0084 0.0045 0.0145
v  -0.0000 0.0045 0.0167
v  0.0084 0.0045 0.0145
v  0.0145 0.0045 0.0084
v  0.0167 0.0045 0.0000
v  0.0145 0.0045 -0.0084
v  0.0084 0.0045 -0.0145
v  0.0000 0.0045 -0.0167
v  -0.0084 0.0045 -0.0145
v  -0.0145 0.0045 -0.0084
v  -0.0075 0.0011 0.0043
v  -0.0086 0.0011 -0.0000
v  -0.0043 0.0011 0.0075
v  -0.0000 0.0011 0.0086
v  0.0043 0.0011 0.0075
v  0.0075 0.0011 0.0043
v  0.0086 0.0011 0.0000
v  0.0075 0.0011 -0.0043
v  0.0043 0.0011 -0.0075
v  0.0000 0.0011 -0.0086
v  -0.0043 0.0011 -0.0075
v  -0.0075 0.0011 -0.0043
v  0.0000 0.0000 -0.0000
v  -0.0376 0.4464 -0.0000
v  -0.0326 0.4464 0.0188
v  -0.0302 0.4464 0.0175
v  -0.0349 0.4464 -0.0000
v  -0.0188 0.4464 0.0326
v  -0.0175 0.4464 0.0302
v  -0.0000 0.4464 0.0376
v  -0.0000 0.4464 0.0349
v  0.0188 0.4464 0.0326
v  0.0175 0.4464 0.0302
v  0.0326 0.4464 0.0188
v  0.0302 0.4464 0.0175
v  0.0376 0.4464 -0.0000
v  0.0349 0.4464 -0.0000
v  0.0326 0.4464 -0.0188
v  0.0302 0.4464 -0.0175
v  0.0188 0.4464 -0.0326
v  0.0175 0.4464 -0.0302
v  -0.0000 0.4464 -0.0376
v  -0.0000 0.4464 -0.0349
v  -0.0188 0.4464 -0.0326
v  -0.0175 0.4464 -0.0302
v  -0.0326 0.4464 -0.0188
v  -0.0302 0.4464 -0.0175
v  -0.0335 0.4455 0.0193
v  -0.0386 0.4455 -0.0000
v  -0.0193 0.4455 0.0335
v  -0.0000 0.4455 0.0386
v  0.0193 0.4455 0.0335
v  0.0335 0.4455 0.0193
v  0.0386 0.4455 -0.0000
v  0.0335 0.4455 -0.0193
v  0.0193 0.4455 -0.0335
v  -0.0000 0.4455 -0.0386
v  -0.0193 0.4455 -0.0335
v  -0.0335 0.4455 -0.0193
v  -0.0339 0.4455 -0.0000
v  -0.0294 0.4455 0.0170
v  -0.0294 0.4455 -0.0170
v  -0.0170 0.4455 -0.0294
v  -0.0000 0.4455 -0.0339
v  0.0170 0.4455 -0.0294
v  0.0294 0.4455 -0.0170
v  0.0339 0.4455 -0.0000
v  0.0294 0.4455 0.0170
v  0.0170 0.4455 0.0294
v  -0.0000 0.4455 0.0339
v  -0.0170 0.4455 0.0294
# 218 vertices

vn -0.8641 -0.0663 0.4989
vn -0.8556 0.1549 0.4940
vn -0.9879 0.1549 -0.0000
vn -0.9978 -0.0663 -0.0000
vn -0.4989 -0.0663 0.8641
vn -0.4940 0.1549 0.8556
vn -0.0000 -0.0663 0.9978
vn -0.0000 0.1549 0.9879
vn 0.4989 -0.0663 0.8641
vn 0.4940 0.1549 0.8556
vn 0.8641 -0.0663 0.4989
vn 0.8556 0.1549 0.4940
vn 0.9978 -0.0663 0.0000
vn 0.9879 0.1549 0.0000
vn 0.8641 -0.0663 -0.4989
vn 0.8556 0.1549 -0.4940
vn 0.4989 -0.0663 -0.8641
vn 0.4940 0.1549 -0.8556
vn 0.0000 -0.0663 -0.9978
vn -0.0000 0.1549 -0.9879
vn -0.4989 -0.0663 -0.8641
vn -0.4940 0.1549 -0.8556
vn -0.8641 -0.0663 -0.4989
vn -0.8556 0.1549 -0.4940
vn -0.8375 -0.2547 0.4835
vn -0.9670 -0.2547 -0.0000
vn -0.4835 -0.2547 0.8375
vn -0.0000 -0.2547 0.9670
vn 0.4835 -0.2547 0.8375
vn 0.8375 -0.2547 0.4835
vn 0.9670 -0.2547 0.0000
vn 0.8375 -0.2547 -0.4835
vn 0.4835 -0.2547 -0.8375
vn 0.0000 -0.2547 -0.9670
vn -0.4835 -0.2547 -0.8375
vn -0.8375 -0.2547 -0.4835
vn -0.7551 -0.4896 0.4360
vn -0.8719 -0.4896 -0.0000
vn -0.4360 -0.4896 0.7551
vn 0.0000 -0.4896 0.8719
vn 0.4360 -0.4896 0.7551
vn 0.7551 -0.4896 0.4360
vn 0.8719 -0.4896 0.0000
vn 0.7551 -0.4896 -0.4360
vn 0.4360 -0.4896 -0.7551
vn 0.0000 -0.4896 -0.8719
vn -0.4360 -0.4896 -0.7551
vn -0.7551 -0.4896 -0.4360
vn -0.6227 -0.6950 0.3595
vn -0.7190 -0.6950 -0.0000
vn -0.3595 -0.6950 0.6227
vn -0.0000 -0.6950 0.7190
vn 0.3595 -0.6950 0.6227
vn 0.6227 -0.6950 0.3595
vn 0.7190 -0.6950 0.0000
vn 0.6227 -0.6950 -0.3595
vn 0.3595 -0.6950 -0.6227
vn 0.0000 -0.6950 -0.7190
vn -0.3595 -0.6950 -0.6227
vn -0.6227 -0.6950 -0.3595
vn -0.4487 -0.8553 0.2591
vn -0.5181 -0.8553 0.0000
vn -0.2591 -0.8553 0.4487
vn 0.0000 -0.8553 0.5181
vn 0.2591 -0.8553 0.4487
vn 0.4487 -0.8553 0.2591
vn 0.5181 -0.8553 0.0000
vn 0.4487 -0.8553 -0.2591
vn 0.2591 -0.8553 -0.4487
vn 0.0000 -0.8553 -0.5181
vn -0.2591 -0.8553 -0.4487
vn -0.4487 -0.8553 -0.2591
vn -0.2434 -0.9597 0.1405
vn -0.2811 -0.9597 0.0000
vn -0.1405 -0.9597 0.2434
vn 0.0000 -0.9597 0.2811
vn 0.1405 -0.9597 0.2434
vn 0.2434 -0.9597 0.1405
vn 0.2811 -0.9597 0.0000
vn 0.2434 -0.9597 -0.1405
vn 0.1405 -0.9597 -0.2434
vn 0.0000 -0.9597 -0.2811
vn -0.1405 -0.9597 -0.2434
vn -0.2434 -0.9597 -0.1405
vn 0.0000 -1.0000 0.0000
vn 0.9866 0.1631 0.0000
vn 0.8544 0.1631 -0.4933
vn 0.8642 0.0647 -0.4990
vn 0.9979 0.0647 0.0000
vn 0.4933 0.1631 -0.8544
vn 0.4990 0.0647 -0.8642
vn 0.0000 0.1631 -0.9866
vn 0.0000 0.0647 -0.9979
vn -0.4933 0.1631 -0.8544
vn -0.4990 0.0647 -0.8642
vn -0.8544 0.1631 -0.4933
vn -0.8642 0.0647 -0.4989
vn -0.9866 0.1631 0.0000
vn -0.9979 0.0647 0.0000
vn -0.8544 0.1631 0.4933
vn -0.8642 0.0647 0.4990
vn -0.4933 0.1631 0.8544
vn -0.4989 0.0647 0.8642
vn -0.0000 0.1631 0.9866
vn -0.0000 0.0647 0.9979
vn 0.4933 0.1631 0.8544
vn 0.4990 0.0647 0.8642
vn 0.8544 0.1631 0.4933
vn 0.8642 0.0647 0.4990
vn 0.8377 0.2536 -0.4837
vn 0.9673 0.2536 0.0000
vn 0.4837 0.2536 -0.8377
vn 0.0000 0.2536 -0.9673
vn -0.4837 0.2536 -0.8377
vn -0.8377 0.2536 -0.4837
vn -0.9673 0.2536 -0.0000
vn -0.8377 0.2536 0.4837
vn -0.4837 0.2536 0.8377
vn -0.0000 0.2536 0.9673
vn 0.4837 0.2536 0.8377
vn 0.8377 0.2536 0.4837
vn 0.7545 0.4909 -0.4356
vn 0.8712 0.4909 0.0000
vn 0.4356 0.4909 -0.7545
vn 0.0000 0.4909 -0.8712
vn -0.4356 0.4909 -0.7545
vn -0.7545 0.4909 -0.4356
vn -0.8712 0.4909 -0.0000
vn -0.7545 0.4909 0.4356
vn -0.4356 0.4909 0.7545
vn -0.0000 0.4909 0.8712
vn 0.4356 0.4909 0.7545
vn 0.7545 0.4909 0.4356
vn 0.6215 0.6965 -0.3588
vn 0.7176 0.6965 0.0000
vn 0.3588 0.6965 -0.6215
vn -0.0000 0.6965 -0.7176
vn -0.3588 0.6965 -0.6215
vn -0.6215 0.6965 -0.3588
vn -0.7176 0.6965 -0.0000
vn -0.6215 0.6965 0.3588
vn -0.3588 0.6965 0.6215
vn -0.0000 0.6965 0.7176
vn 0.3588 0.6965 0.6215
vn 0.6215 0.6965 0.3588
vn 0.4468 0.8566 -0.2580
vn 0.5159 0.8566 -0.0000
vn 0.2580 0.8566 -0.4468
vn -0.0000 0.8566 -0.5159
vn -0.2580 0.8566 -0.4468
vn -0.4468 0.8566 -0.2580
vn -0.5159 0.8566 -0.0000
vn -0.4468 0.8566 0.2580
vn -0.2580 0.8566 0.4468
vn -0.0000 0.8566 0.5159
vn 0.2580 0.8566 0.4468
vn 0.4468 0.8566 0.2580
vn 0.2415 0.9603 -0.1394
vn 0.2789 0.9603 -0.0000
vn 0.1394 0.9603 -0.2415
vn -0.0000 0.9603 -0.2789
vn -0.1394 0.9603 -0.2415
vn -0.2415 0.9603 -0.1394
vn -0.2789 0.9603 -0.0000
vn -0.2415 0.9603 0.1394
vn -0.1394 0.9603 0.2415
vn -0.0000 0.9603 0.2789
vn 0.1394 0.9603 0.2415
vn 0.2415 0.9603 0.1394
vn -0.0000 1.0000 -0.0000
vn -0.4311 0.9023 -0.0000
vn -0.3733 0.9023 0.2155
vn 0.2798 0.9464 -0.1615
vn 0.3231 0.9464 0.0000
vn -0.2155 0.9023 0.3733
vn 0.1615 0.9464 -0.2798
vn -0.0000 0.9023 0.4311
vn -0.0000 0.9464 -0.3231
vn 0.2155 0.9023 0.3733
vn -0.1615 0.9464 -0.2798
vn 0.3733 0.9023 0.2155
vn -0.2798 0.9464 -0.1615
vn 0.4311 0.9023 0.0000
vn -0.3231 0.9464 -0.0000
vn 0.3733 0.9023 -0.2155
vn -0.2798 0.9464 0.1615
vn 0.2155 0.9023 -0.3733
vn -0.1615 0.9464 0.2798
vn 0.0000 0.9023 -0.4311
vn -0.0000 0.9464 0.3231
vn -0.2155 0.9023 -0.3733
vn 0.1615 0.9464 0.2798
vn -0.3733 0.9023 -0.2155
vn 0.2798 0.9464 0.1615
vn -0.7446 0.5107 0.4299
vn -0.8597 0.5107 -0.0000
vn -0.4299 0.5107 0.7446
vn -0.0000 0.5107 0.8597
vn 0.4299 0.5107 0.7446
vn 0.7446 0.5107 0.4299
vn 0.8597 0.5107 0.0000
vn 0.7446 0.5107 -0.4299
vn 0.4299 0.5107 -0.7446
vn 0.0000 0.5107 -0.8597
vn -0.4299 0.5107 -0.7446
vn -0.7446 0.5107 -0.4299
vn 0.8381 0.5455 0.0000
vn 0.7258 0.5455 -0.4191
vn 0.7258 0.5455 0.4191
vn 0.4191 0.5455 0.7258
vn -0.0000 0.5455 0.8381
vn -0.4191 0.5455 0.7258
vn -0.7258 0.5455 0.4191
vn -0.8381 0.5455 -0.0000
vn -0.7258 0.5455 -0.4191
vn -0.4191 0.5455 -0.7258
vn 0.0000 0.5455 -0.8381
vn 0.4191 0.5455 -0.7258
# 218 vertex normals

vt 0.0833 0.0000 0.0000
vt 0.0833 1.0000 0.0000
vt 0.0000 1.0000 0.0000
vt 0.0000 0.0000 0.0000
vt 0.1667 0.0000 0.0000
vt 0.1667 1.0000 0.0000
vt 0.2500 0.0000 0.0000
vt 0.2500 1.0000 0.0000
vt 0.3333 0.0000 0.0000
vt 0.3333 1.0000 0.0000
vt 0.4167 0.0000 0.0000
vt 0.4167 1.0000 0.0000
vt 0.5000 0.0000 0.0000
vt 0.5000 1.0000 0.0000
vt 0.5833 0.0000 0.0000
vt 0.5833 1.0000 0.0000
vt 0.6667 0.0000 0.0000
vt 0.6667 1.0000 0.0000
vt 0.7500 0.0000 0.0000
vt 0.7500 1.0000 0.0000
vt 0.8333 0.0000 0.0000
vt 0.8333 1.0000 0.0000
vt 0.9167 0.0000 0.0000
vt 0.9167 1.0000 0.0000
vt 1.0000 0.0000 0.0000
vt 1.0000 1.0000 0.0000
vt 0.9183 0.7415 0.0000
vt 0.9330 0.7500 0.0000
vt 1.0000 0.5000 0.0000
vt 0.9830 0.5000 0.0000
vt 0.7415 0.9183 0.0000
vt 0.7500 0.9330 0.0000
vt 0.5000 0.9830 0.0000
vt 0.2585 0.9183 0.0000
vt 0.2500 0.9330 0.0000
vt 0.0817 0.7415 0.0000
vt 0.0670 0.7500 0.0000
vt 0.0170 0.5000 0.0000
vt 0.0000 0.5000 0.0000
vt 0.0817 0.2585 0.0000
vt 0.0670 0.2500 0.0000
vt 0.2585 0.0817 0.0000
vt 0.2500 0.0670 0.0000
vt 0.5000 0.0170 0.0000
vt 0.7415 0.0817 0.0000
vt 0.7500 0.0670 0.0000
vt 0.9183 0.2585 0.0000
vt 0.9330 0.2500 0.0000
vt 0.8750 0.7165 0.0000
vt 0.9330 0.5000 0.0000
vt 0.7165 0.8750 0.0000
vt 0.5000 0.9330 0.0000
vt 0.2835 0.8750 0.0000
vt 0.1250 0.7165 0.0000
vt 0.0670 0.5000 0.0000
vt 0.1250 0.2835 0.0000
vt 0.2835 0.1250 0.0000
vt 0.5000 0.0670 0.0000
vt 0.7165 0.1250 0.0000
vt 0.8750 0.2835 0.0000
vt 0.8062 0.6768 0.0000
vt 0.8536 0.5000 0.0000
vt 0.6768 0.8062 0.0000
vt 0.5000 0.8536 0.0000
vt 0.3232 0.8062 0.0000
vt 0.1938 0.6768 0.0000
vt 0.1464 0.5000 0.0000
vt 0.1938 0.3232 0.0000
vt 0.3232 0.1938 0.0000
vt 0.5000 0.1464 0.0000
vt 0.6768 0.1938 0.0000
vt 0.8062 0.3232 0.0000
vt 0.7165 0.6250 0.0000
vt 0.7500 0.5000 0.0000
vt 0.6250 0.7165 0.0000
vt 0.5000 0.7500 0.0000
vt 0.3750 0.7165 0.0000
vt 0.2835 0.6250 0.0000
vt 0.2500 0.5000 0.0000
vt 0.2835 0.3750 0.0000
vt 0.3750 0.2835 0.0000
vt 0.5000 0.2500 0.0000
vt 0.6250 0.2835 0.0000
vt 0.7165 0.3750 0.0000
vt 0.6121 0.5647 0.0000
vt 0.6294 0.5000 0.0000
vt 0.5647 0.6121 0.0000
vt 0.5000 0.6294 0.0000
vt 0.4353 0.6121 0.0000
vt 0.3879 0.5647 0.0000
vt 0.3706 0.5000 0.0000
vt 0.3879 0.4353 0.0000
vt 0.4353 0.3879 0.0000
vt 0.5000 0.3706 0.0000
vt 0.5647 0.3879 0.0000
vt 0.6121 0.4353 0.0000
vt 0.5000 0.5000 0.0000
# 97 texture coords

o TestTube_01
g TestTube_01
s 1
f 1/1/1 2/2/2 3/3/3 4/4/4 
f 5/5/5 6/6/6 2/2/2 1/1/1 
f 7/7/7 8/8/8 6/6/6 5/5/5 
f 9/9/9 10/10/10 8/8/8 7/7/7 
f 11/11/11 12/12/12 10/10/10 9/9/9 
f 13/13/13 14/14/14 12/12/12 11/11/11 
f 15/15/15 16/16/16 14/14/14 13/13/13 
f 17/17/17 18/18/18 16/16/16 15/15/15 
f 19/19/19 20/20/20 18/18/18 17/17/17 
f 21/21/21 22/22/22 20/20/20 19/19/19 
f 23/23/23 24/24/24 22/22/22 21/21/21 
f 4/25/4 3/26/3 24/24/24 23/23/23 
f 25/27/25 1/28/1 4/29/4 26/30/26 
f 27/31/27 5/32/5 1/28/1 25/27/25 
f 28/33/28 7/14/7 5/32/5 27/31/27 
f 29/34/29 9/35/9 7/14/7 28/33/28 
f 30/36/30 11/37/11 9/35/9 29/34/29 
f 31/38/31 13/39/13 11/37/11 30/36/30 
f 32/40/32 15/41/15 13/39/13 31/38/31 
f 33/42/33 17/43/17 15/41/15 32/40/32 
f 34/44/34 19/13/19 17/43/17 33/42/33 
f 35/45/35 21/46/21 19/13/19 34/44/34 
f 36/47/36 23/48/23 21/46/21 35/45/35 
f 26/30/26 4/29/4 23/48/23 36/47/36 
f 37/49/37 25/27/25 26/30/26 38/50/38 
f 39/51/39 27/31/27 25/27/25 37/49/37 
f 40/52/40 28/33/28 27/31/27 39/51/39 
f 41/53/41 29/34/29 28/33/28 40/52/40 
f 42/54/42 30/36/30 29/34/29 41/53/41 
f 43/55/43 31/38/31 30/36/30 42/54/42 
f 44/56/44 32/40/32 31/38/31 43/55/43 
f 45/57/45 33/42/33 32/40/32 44/56/44 
f 46/58/46 34/44/34 33/42/33 45/57/45 
f 47/59/47 35/45/35 34/44/34 46/58/46 
f 48/60/48 36/47/36 35/45/35 47/59/47 
f 38/50/38 26/30/26 36/47/36 48/60/48 
f 49/61/49 37/49/37 38/50/38 50/62/50 
f 51/63/51 39/51/39 37/49/37 49/61/49 
f 52/64/52 40/52/40 39/51/39 51/63/51 
f 53/65/53 41/53/41 40/52/40 52/64/52 
f 54/66/54 42/54/42 41/53/41 53/65/53 
f 55/67/55 43/55/43 42/54/42 54/66/54 
f 56/68/56 44/56/44 43/55/43 55/67/55 
f 57/69/57 45/57/45 44/56/44 56/68/56 
f 58/70/58 46/58/46 45/57/45 57/69/57 
f 59/71/59 47/59/47 46/58/46 58/70/58 
f 60/72/60 48/60/48 47/59/47 59/71/59 
f 50/62/50 38/50/38 48/60/48 60/72/60 
f 61/73/61 49/61/49 50/62/50 62/74/62 
f 63/75/63 51/63/51 49/61/49 61/73/61 
f 64/76/64 52/64/52 51/63/51 63/75/63 
f 65/77/65 53/65/53 52/64/52 64/76/64 
f 66/78/66 54/66/54 53/65/53 65/77/65 
f 67/79/67 55/67/55 54/66/54 66/78/66 
f 68/80/68 56/68/56 55/67/55 67/79/67 
f 69/81/69 57/69/57 56/68/56 68/80/68 
f 70/82/70 58/70/58 57/69/57 69/81/69 
f 71/83/71 59/71/59 58/70/58 70/82/70 
f 72/84/72 60/72/60 59/71/59 71/83/71 
f 62/74/62 50/62/50 60/72/60 72/84/72 
f 73/85/73 61/73/61 62/74/62 74/86/74 
f 75/87/75 63/75/63 61/73/61 73/85/73 
f 76/88/76 64/76/64 63/75/63 75/87/75 
f 77/89/77 65/77/65 64/76/64 76/88/76 
f 78/90/78 66/78/66 65/77/65 77/89/77 
f 79/91/79 67/79/67 66/78/66 78/90/78 
f 80/92/80 68/80/68 67/79/67 79/91/79 
f 81/93/81 69/81/69 68/80/68 80/92/80 
f 82/94/82 70/82/70 69/81/69 81/93/81 
f 83/95/83 71/83/71 70/82/70 82/94/82 
f 84/96/84 72/84/72 71/83/71 83/95/83 
f 74/86/74 62/74/62 72/84/72 84/96/84 
f 74/86/74 85/97/85 73/85/73 
f 73/85/73 85/97/85 75/87/75 
f 75/87/75 85/97/85 76/88/76 
f 76/88/76 85/97/85 77/89/77 
f 77/89/77 85/97/85 78/90/78 
f 78/90/78 85/97/85 79/91/79 
f 79/91/79 85/97/85 80/92/80 
f 80/92/80 85/97/85 81/93/81 
f 81/93/81 85/97/85 82/94/82 
f 82/94/82 85/97/85 83/95/83 
f 83/95/83 85/97/85 84/96/84 
f 84/96/84 85/97/85 74/86/74 
f 86/3/86 87/2/87 88/1/88 89/4/89 
f 87/2/87 90/6/90 91/5/91 88/1/88 
f 90/6/90 92/8/92 93/7/93 91/5/91 
f 92/8/92 94/10/94 95/9/95 93/7/93 
f 94/10/94 96/12/96 97/11/97 95/9/95 
f 96/12/96 98/14/98 99/13/99 97/11/97 
f 98/14/98 100/16/100 101/15/101 99/13/99 
f 100/16/100 102/18/102 103/17/103 101/15/101 
f 102/18/102 104/20/104 105/19/105 103/17/103 
f 104/20/104 106/22/106 107/21/107 105/19/105 
f 106/22/106 108/24/108 109/23/109 107/21/107 
f 108/24/108 86/26/86 89/25/89 109/23/109 
f 89/29/89 88/28/88 110/27/110 111/30/111 
f 88/28/88 91/32/91 112/31/112 110/27/110 
f 91/32/91 93/14/93 113/33/113 112/31/112 
f 93/14/93 95/35/95 114/34/114 113/33/113 
f 95/35/95 97/37/97 115/36/115 114/34/114 
f 97/37/97 99/39/99 116/38/116 115/36/115 
f 99/39/99 101/41/101 117/40/117 116/38/116 
f 101/41/101 103/43/103 118/42/118 117/40/117 
f 103/43/103 105/13/105 119/44/119 118/42/118 
f 105/13/105 107/46/107 120/45/120 119/44/119 
f 107/46/107 109/48/109 121/47/121 120/45/120 
f 109/48/109 89/29/89 111/30/111 121/47/121 
f 111/30/111 110/27/110 122/49/122 123/50/123 
f 110/27/110 112/31/112 124/51/124 122/49/122 
f 112/31/112 113/33/113 125/52/125 124/51/124 
f 113/33/113 114/34/114 126/53/126 125/52/125 
f 114/34/114 115/36/115 127/54/127 126/53/126 
f 115/36/115 116/38/116 128/55/128 127/54/127 
f 116/38/116 117/40/117 129/56/129 128/55/128 
f 117/40/117 118/42/118 130/57/130 129/56/129 
f 118/42/118 119/44/119 131/58/131 130/57/130 
f 119/44/119 120/45/120 132/59/132 131/58/131 
f 120/45/120 121/47/121 133/60/133 132/59/132 
f 121/47/121 111/30/111 123/50/123 133/60/133 
f 123/50/123 122/49/122 134/61/134 135/62/135 
f 122/49/122 124/51/124 136/63/136 134/61/134 
f 124/51/124 125/52/125 137/64/137 136/63/136 
f 125/52/125 126/53/126 138/65/138 137/64/137 
f 126/53/126 127/54/127 139/66/139 138/65/138 
f 127/54/127 128/55/128 140/67/140 139/66/139 
f 128/55/128 129/56/129 141/68/141 140/67/140 
f 129/56/129 130/57/130 142/69/142 141/68/141 
f 130/57/130 131/58/131 143/70/143 142/69/142 
f 131/58/131 132/59/132 144/71/144 143/70/143 
f 132/59/132 133/60/133 145/72/145 144/71/144 
f 133/60/133 123/50/123 135/62/135 145/72/145 
f 135/62/135 134/61/134 146/73/146 147/74/147 
f 134/61/134 136/63/136 148/75/148 146/73/146 
f 136/63/136 137/64/137 149/76/149 148/75/148 
f 137/64/137 138/65/138 150/77/150 149/76/149 
f 138/65/138 139/66/139 151/78/151 150/77/150 
f 139/66/139 140/67/140 152/79/152 151/78/151 
f 140/67/140 141/68/141 153/80/153 152/79/152 
f 141/68/141 142/69/142 154/81/154 153/80/153 
f 142/69/142 143/70/143 155/82/155 154/81/154 
f 143/70/143 144/71/144 156/83/156 155/82/155 
f 144/71/144 145/72/145 157/84/157 156/83/156 
f 145/72/145 135/62/135 147/74/147 157/84/157 
f 147/74/147 146/73/146 158/85/158 159/86/159 
f 146/73/146 148/75/148 160/87/160 158/85/158 
f 148/75/148 149/76/149 161/88/161 160/87/160 
f 149/76/149 150/77/150 162/89/162 161/88/161 
f 150/77/150 151/78/151 163/90/163 162/89/162 
f 151/78/151 152/79/152 164/91/164 163/90/163 
f 152/79/152 153/80/153 165/92/165 164/91/164 
f 153/80/153 154/81/154 166/93/166 165/92/165 
f 154/81/154 155/82/155 167/94/167 166/93/166 
f 155/82/155 156/83/156 168/95/168 167/94/167 
f 156/83/156 157/84/157 169/96/169 168/95/168 
f 157/84/157 147/74/147 159/86/159 169/96/169 
f 158/85/158 170/97/170 159/86/159 
f 160/87/160 170/97/170 158/85/158 
f 161/88/161 170/97/170 160/87/160 
f 162/89/162 170/97/170 161/88/161 
f 163/90/163 170/97/170 162/89/162 
f 164/91/164 170/97/170 163/90/163 
f 165/92/165 170/97/170 164/91/164 
f 166/93/166 170/97/170 165/92/165 
f 167/94/167 170/97/170 166/93/166 
f 168/95/168 170/97/170 167/94/167 
f 169/96/169 170/97/170 168/95/168 
f 159/86/159 170/97/170 169/96/169 
f 171/3/171 172/2/172 173/2/173 174/3/174 
f 172/2/172 175/6/175 176/6/176 173/2/173 
f 175/6/175 177/8/177 178/8/178 176/6/176 
f 177/8/177 179/10/179 180/10/180 178/8/178 
f 179/10/179 181/12/181 182/12/182 180/10/180 
f 181/12/181 183/14/183 184/14/184 182/12/182 
f 183/14/183 185/16/185 186/16/186 184/14/184 
f 185/16/185 187/18/187 188/18/188 186/16/186 
f 187/18/187 189/20/189 190/20/190 188/18/188 
f 189/20/189 191/22/191 192/22/192 190/20/190 
f 191/22/191 193/24/193 194/24/194 192/22/192 
f 193/24/193 171/26/171 174/26/174 194/24/194 
f 3/3/3 2/2/2 195/2/195 196/3/196 
f 2/2/2 6/6/6 197/6/197 195/2/195 
f 6/6/6 8/8/8 198/8/198 197/6/197 
f 8/8/8 10/10/10 199/10/199 198/8/198 
f 10/10/10 12/12/12 200/12/200 199/10/199 
f 12/12/12 14/14/14 201/14/201 200/12/200 
f 14/14/14 16/16/16 202/16/202 201/14/201 
f 16/16/16 18/18/18 203/18/203 202/16/202 
f 18/18/18 20/20/20 204/20/204 203/18/203 
f 20/20/20 22/22/22 205/22/205 204/20/204 
f 22/22/22 24/24/24 206/24/206 205/22/205 
f 24/24/24 3/26/3 196/26/196 206/24/206 
f 87/2/87 86/3/86 207/3/207 208/2/208 
f 86/26/86 108/24/108 209/24/209 207/26/207 
f 108/24/108 106/22/106 210/22/210 209/24/209 
f 106/22/106 104/20/104 211/20/211 210/22/210 
f 104/20/104 102/18/102 212/18/212 211/20/211 
f 102/18/102 100/16/100 213/16/213 212/18/212 
f 100/16/100 98/14/98 214/14/214 213/16/213 
f 98/14/98 96/12/96 215/12/215 214/14/214 
f 96/12/96 94/10/94 216/10/216 215/12/215 
f 94/10/94 92/8/92 217/8/217 216/10/216 
f 92/8/92 90/6/90 218/6/218 217/8/217 
f 90/6/90 87/2/87 208/2/208 218/6/218 
f 195/2/195 172/2/172 171/3/171 196/3/196 
f 197/6/197 175/6/175 172/2/172 195/2/195 
f 198/8/198 177/8/177 175/6/175 197/6/197 
f 199/10/199 179/10/179 177/8/177 198/8/198 
f 200/12/200 181/12/181 179/10/179 199/10/199 
f 201/14/201 183/14/183 181/12/181 200/12/200 
f 202/16/202 185/16/185 183/14/183 201/14/201 
f 203/18/203 187/18/187 185/16/185 202/16/202 
f 204/20/204 189/20/189 187/18/187 203/18/203 
f 205/22/205 191/22/191 189/20/189 204/20/204 
f 206/24/206 193/24/193 191/22/191 205/22/205 
f 196/26/196 171/26/171 193/24/193 206/24/206 
f 207/3/207 174/3/174 173/2/173 208/2/208 
f 209/24/209 194/24/194 174/26/174 207/26/207 
f 210/22/210 192/22/192 194/24/194 209/24/209 
f 211/20/211 190/20/190 192/22/192 210/22/210 
f 212/18/212 188/18/188 190/20/190 211/20/211 
f 213/16/213 186/16/186 188/18/188 212/18/212 
f 214/14/214 184/14/184 186/16/186 213/16/213 
f 215/12/215 182/12/182 184/14/184 214/14/214 
f 216/10/216 180/10/180 182/12/182 215/12/215 
f 217/8/217 178/8/178 180/10/180 216/10/216 
f 218/6/218 176/6/176 178/8/178 217/8/217 
f 208/2/208 173/2/173 176/6/176 218/6/218 
# 204 polygons - 24 triangles

