# 3ds Max Wavefront OBJ Exporter v0.97b - (c)2007 guruware
# File Created: 28.01.2018 11:18:57

#
# object Button_Long01
#

v  0.3404 0.0635 0.0484
v  0.4500 0.0635 0.0484
v  0.4226 0.0909 0.0484
v  0.3404 0.1000 0.0484
v  -0.4500 -0.0635 0.0484
v  -0.4500 0.0635 0.0484
v  -0.4500 0.0635 -0.0484
v  -0.4500 -0.0635 -0.0484
v  -0.3404 0.1000 0.0484
v  0.3404 0.1000 -0.0484
v  -0.3404 0.1000 -0.0484
v  0.4500 -0.0635 0.0484
v  0.4500 -0.0635 -0.0484
v  0.4500 0.0635 -0.0484
v  0.3404 -0.1000 0.0484
v  -0.3404 -0.1000 0.0484
v  -0.3404 -0.1000 -0.0484
v  0.3404 -0.1000 -0.0484
v  -0.4226 -0.0909 0.0484
v  -0.4226 -0.0909 -0.0484
v  0.4226 -0.0909 0.0484
v  0.4226 -0.0909 -0.0484
v  -0.4226 0.0909 0.0484
v  -0.4226 0.0909 -0.0484
v  0.4226 0.0909 -0.0484
v  0.3404 -0.0635 0.0484
v  -0.3404 0.0635 0.0484
v  -0.3404 -0.0635 0.0484
# 28 vertices

vn 0.0000 0.0000 1.0000
vn 0.7173 0.2971 0.6303
vn 0.3330 0.6928 0.6396
vn 0.0398 0.7180 0.6949
vn -0.7173 -0.2971 0.6303
vn -0.7173 0.2971 0.6303
vn -0.9239 0.3827 -0.0000
vn -0.9239 -0.3827 -0.0000
vn -0.0398 0.7180 0.6949
vn 0.0553 0.9985 0.0000
vn -0.0553 0.9985 -0.0000
vn 0.7173 -0.2971 0.6303
vn 0.9239 -0.3827 0.0000
vn 0.9239 0.3827 0.0000
vn 0.0398 -0.7180 0.6949
vn -0.0398 -0.7180 0.6949
vn -0.0553 -0.9985 -0.0000
vn 0.0553 -0.9985 0.0000
vn -0.3329 -0.6928 0.6397
vn -0.4332 -0.9013 0.0000
vn 0.3330 -0.6928 0.6396
vn 0.4332 -0.9013 0.0000
vn -0.3329 0.6928 0.6397
vn -0.4332 0.9013 0.0000
vn 0.4332 0.9013 0.0000
# 25 vertex normals

vt 0.8042 0.4746 0.0000
vt 0.8977 0.4739 0.0000
vt 0.8823 0.5030 0.0000
vt 0.8052 0.5060 0.0000
vt 0.1062 0.3628 0.0000
vt 0.1062 0.4738 0.0000
vt 0.0237 0.4771 0.0000
vt 0.0237 0.3595 0.0000
vt 0.1987 0.5060 0.0000
vt 0.8057 0.5913 0.0000
vt 0.1982 0.5913 0.0000
vt 0.8977 0.3628 0.0000
vt 0.9803 0.3595 0.0000
vt 0.9802 0.4771 0.0000
vt 0.8052 0.3306 0.0000
vt 0.1987 0.3306 0.0000
vt 0.1982 0.2453 0.0000
vt 0.8057 0.2453 0.0000
vt 0.1216 0.3336 0.0000
vt 0.1237 0.2457 0.0000
vt 0.8823 0.3337 0.0000
vt 0.9747 0.3229 0.0000
vt 0.1216 0.5030 0.0000
vt 0.0292 0.5137 0.0000
vt 0.8802 0.5909 0.0000
vt 0.0292 0.3229 0.0000
vt 0.8802 0.2457 0.0000
vt 0.1237 0.5909 0.0000
vt 0.9747 0.5137 0.0000
vt 0.8042 0.3621 0.0000
vt 0.1997 0.4746 0.0000
vt 0.1997 0.3621 0.0000
# 32 texture coords

o Button_Long01
g Button_Long01
s 1
f 1/1/1 2/2/2 3/3/3 4/4/4 
s 2
f 5/5/5 6/6/6 7/7/7 8/8/8 
s 4
f 9/9/9 4/4/4 10/10/10 11/11/11 
s 2
f 2/2/2 12/12/12 13/13/13 14/14/14 
s 4
f 15/15/15 16/16/16 17/17/17 18/18/18 
f 16/16/16 19/19/19 20/20/20 17/17/17 
s 2
f 12/12/12 21/21/21 22/22/22 13/13/13 
f 6/6/6 23/23/23 24/24/24 7/7/7 
s 4
f 4/4/4 3/3/3 25/25/25 10/10/10 
s 2
f 19/19/19 5/5/5 8/8/8 20/26/20 
s 4
f 21/21/21 15/15/15 18/18/18 22/27/22 
f 23/23/23 9/9/9 11/11/11 24/28/24 
s 2
f 3/3/3 2/2/2 14/14/14 25/29/25 
s 1
f 15/15/15 21/21/21 12/12/12 26/30/1 
f 4/4/4 9/9/9 27/31/1 1/1/1 
f 16/16/16 15/15/15 26/30/1 28/32/1 
f 12/12/12 2/2/2 1/1/1 26/30/1 
f 26/30/1 1/1/1 27/31/1 28/32/1 
f 9/9/9 23/23/23 6/6/6 27/31/1 
f 27/31/1 6/6/6 5/5/5 28/32/1 
f 28/32/1 5/5/5 19/19/19 16/16/16 
# 21 polygons

