# 3ds Max Wavefront OBJ Exporter v0.97b - (c)2007 guruware
# File Created: 27.01.2018 17:54:29

#
# object CureMachiene_Button
#

v  0.1021 0.0635 0.0484
v  0.1350 0.0635 0.0484
v  0.1268 0.0909 0.0484
v  0.1021 0.1000 0.0484
v  -0.1350 -0.0635 0.0484
v  -0.1350 0.0635 0.0484
v  -0.1350 0.0635 -0.0484
v  -0.1350 -0.0635 -0.0484
v  -0.1021 0.1000 0.0484
v  0.1021 0.1000 -0.0484
v  -0.1021 0.1000 -0.0484
v  0.1350 -0.0635 0.0484
v  0.1350 -0.0635 -0.0484
v  0.1350 0.0635 -0.0484
v  0.1021 -0.1000 0.0484
v  -0.1021 -0.1000 0.0484
v  -0.1021 -0.1000 -0.0484
v  0.1021 -0.1000 -0.0484
v  -0.1268 -0.0909 0.0484
v  -0.1268 -0.0909 -0.0484
v  0.1268 -0.0909 0.0484
v  0.1268 -0.0909 -0.0484
v  -0.1268 0.0909 0.0484
v  -0.1268 0.0909 -0.0484
v  0.1268 0.0909 -0.0484
v  0.1021 -0.0635 0.0484
v  -0.1021 0.0635 0.0484
v  -0.1021 -0.0635 0.0484
# 28 vertices

vn 0.0000 0.0000 1.0000
vn 0.7292 0.1070 0.6758
vn 0.5726 0.5374 0.6191
vn 0.1311 0.7312 0.6695
vn -0.7292 -0.1070 0.6758
vn -0.7292 0.1070 0.6758
vn -0.9894 0.1452 -0.0000
vn -0.9894 -0.1452 -0.0000
vn -0.1311 0.7312 0.6695
vn 0.1764 0.9843 -0.0000
vn -0.1764 0.9843 -0.0000
vn 0.7292 -0.1070 0.6758
vn 0.9894 -0.1452 -0.0000
vn 0.9894 0.1452 -0.0000
vn 0.1311 -0.7312 0.6695
vn -0.1311 -0.7312 0.6695
vn -0.1764 -0.9843 -0.0000
vn 0.1764 -0.9843 -0.0000
vn -0.5726 -0.5374 0.6191
vn -0.7291 -0.6844 -0.0000
vn 0.5726 -0.5374 0.6191
vn 0.7291 -0.6844 -0.0000
vn -0.5726 0.5374 0.6191
vn -0.7291 0.6844 -0.0000
vn 0.7291 0.6844 -0.0000
# 25 vertex normals

vt 0.2507 0.4958 0.0000
vt 0.2617 0.4958 0.0000
vt 0.2589 0.5010 0.0000
vt 0.2507 0.5027 0.0000
vt 1.0000 0.4717 0.1717
vt 1.0000 0.4958 0.1717
vt 0.9637 0.4958 0.1717
vt 0.9637 0.4717 0.1717
vt 0.1826 0.0000 0.5027
vt 0.2507 0.0000 0.5027
vt 0.2507 0.0363 0.5027
vt 0.1826 0.0363 0.5027
vt 0.0000 0.4958 0.2617
vt 0.0000 0.4717 0.2617
vt 0.0363 0.4717 0.2617
vt 0.0363 0.4958 0.2617
vt 0.7493 0.0000 0.4648
vt 0.8174 0.0000 0.4648
vt 0.8174 0.0363 0.4648
vt 0.7493 0.0363 0.4648
vt 0.8256 0.0000 0.4665
vt 0.8256 0.0363 0.4665
vt 0.0000 0.4665 0.2589
vt 0.0363 0.4665 0.2589
vt 1.0000 0.5010 0.1744
vt 0.9637 0.5010 0.1744
vt 0.2589 0.0000 0.5010
vt 0.2589 0.0363 0.5010
vt 1.0000 0.4665 0.1744
vt 0.9637 0.4665 0.1744
vt 0.7411 0.0000 0.4665
vt 0.7411 0.0363 0.4665
vt 0.1744 0.0000 0.5010
vt 0.1744 0.0363 0.5010
vt 0.0000 0.5010 0.2589
vt 0.0363 0.5010 0.2589
vt 0.2507 0.4648 0.0000
vt 0.2589 0.4665 0.0000
vt 0.2617 0.4717 0.0000
vt 0.2507 0.4717 0.0000
vt 0.1826 0.5027 0.0000
vt 0.1826 0.4958 0.0000
vt 0.1826 0.4648 0.0000
vt 0.1826 0.4717 0.0000
vt 0.1744 0.5010 0.0000
vt 0.1717 0.4958 0.0000
vt 0.1717 0.4717 0.0000
vt 0.1744 0.4665 0.0000
# 48 texture coords

o CureMachiene_Button
g CureMachiene_Button
s 1
f 1/1/1 2/2/2 3/3/3 4/4/4 
s 2
f 5/5/5 6/6/6 7/7/7 8/8/8 
s 4
f 9/9/9 4/10/4 10/11/10 11/12/11 
s 2
f 2/13/2 12/14/12 13/15/13 14/16/14 
s 4
f 15/17/15 16/18/16 17/19/17 18/20/18 
f 16/18/16 19/21/19 20/22/20 17/19/17 
s 2
f 12/14/12 21/23/21 22/24/22 13/15/13 
f 6/6/6 23/25/23 24/26/24 7/7/7 
s 4
f 4/10/4 3/27/3 25/28/25 10/11/10 
s 2
f 19/29/19 5/5/5 8/8/8 20/30/20 
s 4
f 21/31/21 15/17/15 18/20/18 22/32/22 
f 23/33/23 9/9/9 11/12/11 24/34/24 
s 2
f 3/35/3 2/13/2 14/16/14 25/36/25 
s 1
f 15/37/15 21/38/21 12/39/12 26/40/1 
f 4/4/4 9/41/9 27/42/1 1/1/1 
f 16/43/16 15/37/15 26/40/1 28/44/1 
f 12/39/12 2/2/2 1/1/1 26/40/1 
f 26/40/1 1/1/1 27/42/1 28/44/1 
f 9/41/9 23/45/23 6/46/6 27/42/1 
f 27/42/1 6/46/6 5/47/5 28/44/1 
f 28/44/1 5/47/5 19/48/19 16/43/16 
# 21 polygons

