# 3ds Max Wavefront OBJ Exporter v0.97b - (c)2007 guruware
# File Created: 26.01.2018 19:52:57

#
# object Cylinder001
#

v  0.3828 0.0000 -0.3216
v  0.3230 0.0000 -0.3854
v  0.3230 0.1000 -0.3854
v  0.3828 0.1000 -0.3216
v  0.2497 0.0000 -0.4332
v  0.1717 0.0000 -0.4726
v  0.1717 0.1000 -0.4726
v  0.2497 0.1000 -0.4332
v  0.0865 0.0000 -0.4925
v  -0.0003 0.0000 -0.5028
v  -0.0003 0.1000 -0.5028
v  0.0865 0.1000 -0.4925
v  -0.0871 0.0000 -0.4924
v  -0.1723 0.0000 -0.4724
v  -0.1723 0.1000 -0.4724
v  -0.0871 0.1000 -0.4924
v  -0.2503 0.0000 -0.4329
v  -0.3234 0.0000 -0.3850
v  -0.3234 0.1000 -0.3850
v  -0.2503 0.1000 -0.4329
v  -0.3832 0.0000 -0.3212
v  -0.4356 0.0000 -0.2511
v  -0.4356 0.1000 -0.2511
v  -0.3832 0.1000 -0.3212
v  -0.4700 0.0000 -0.1707
v  -0.4952 0.0000 -0.0870
v  -0.4952 0.1000 -0.0870
v  -0.4700 0.1000 -0.1707
v  -0.5000 0.0000 0.0003
v  -0.4951 0.0000 0.0876
v  -0.4951 0.1000 0.0876
v  -0.5000 0.1000 0.0003
v  -0.4697 0.0000 0.1713
v  -0.4353 0.0000 0.2517
v  -0.4353 0.1000 0.2517
v  -0.4697 0.1000 0.1713
v  -0.3828 0.0000 0.3216
v  -0.3230 0.0000 0.3854
v  -0.3230 0.1000 0.3854
v  -0.3828 0.1000 0.3216
v  -0.2497 0.0000 0.4332
v  -0.1717 0.0000 0.4726
v  -0.1717 0.1000 0.4726
v  -0.2497 0.1000 0.4332
v  -0.0865 0.0000 0.4925
v  0.0003 0.0000 0.5028
v  0.0003 0.1000 0.5028
v  -0.0865 0.1000 0.4925
v  0.0871 0.0000 0.4924
v  0.1723 0.0000 0.4724
v  0.1723 0.1000 0.4724
v  0.0871 0.1000 0.4924
v  0.2503 0.0000 0.4329
v  0.3234 0.0000 0.3850
v  0.3234 0.1000 0.3850
v  0.2503 0.1000 0.4329
v  0.3832 0.0000 0.3212
v  0.4356 0.0000 0.2511
v  0.4356 0.1000 0.2511
v  0.3832 0.1000 0.3212
v  0.4700 0.0000 0.1707
v  0.4952 0.0000 0.0870
v  0.4952 0.1000 0.0870
v  0.4700 0.1000 0.1707
v  0.5000 0.0000 -0.0003
v  0.4951 0.0000 -0.0876
v  0.4951 0.1000 -0.0876
v  0.5000 0.1000 -0.0003
v  0.4697 0.0000 -0.1713
v  0.4353 0.0000 -0.2517
v  0.4353 0.1000 -0.2517
v  0.4697 0.1000 -0.1713
v  0.0039 0.0000 -0.0038
v  0.2404 0.1000 -0.4170
v  0.3109 0.1000 -0.3710
v  0.0833 0.1000 -0.4741
v  0.1653 0.1000 -0.4550
v  -0.0839 0.1000 -0.4740
v  -0.0003 0.1000 -0.4841
v  -0.2409 0.1000 -0.4167
v  -0.1658 0.1000 -0.4548
v  -0.3689 0.1000 -0.3092
v  -0.3114 0.1000 -0.3706
v  -0.4524 0.1000 -0.1644
v  -0.4194 0.1000 -0.2418
v  -0.4814 0.1000 0.0003
v  -0.4768 0.1000 -0.0838
v  -0.4522 0.1000 0.1649
v  -0.4767 0.1000 0.0843
v  -0.3686 0.1000 0.3096
v  -0.4191 0.1000 0.2423
v  -0.2404 0.1000 0.4170
v  -0.3109 0.1000 0.3710
v  -0.0833 0.1000 0.4741
v  -0.1653 0.1000 0.4550
v  0.0839 0.1000 0.4740
v  0.0003 0.1000 0.4841
v  0.2409 0.1000 0.4167
v  0.1658 0.1000 0.4548
v  0.3689 0.1000 0.3092
v  0.3114 0.1000 0.3706
v  0.4524 0.1000 0.1644
v  0.4194 0.1000 0.2418
v  0.4814 0.1000 -0.0003
v  0.4768 0.1000 0.0838
v  0.4522 0.1000 -0.1649
v  0.4767 0.1000 -0.0843
v  0.3686 0.1000 -0.3096
v  0.4191 0.1000 -0.2423
v  0.2404 0.0161 -0.4170
v  0.3109 0.0161 -0.3710
v  0.0833 0.0161 -0.4741
v  0.1653 0.0161 -0.4550
v  -0.0839 0.0161 -0.4740
v  -0.0003 0.0161 -0.4841
v  -0.2409 0.0161 -0.4167
v  -0.1658 0.0161 -0.4548
v  -0.3689 0.0161 -0.3092
v  -0.3114 0.0161 -0.3706
v  -0.4524 0.0161 -0.1644
v  -0.4194 0.0161 -0.2418
v  -0.4814 0.0161 0.0003
v  -0.4768 0.0161 -0.0838
v  -0.4522 0.0161 0.1649
v  -0.4767 0.0161 0.0843
v  -0.3686 0.0161 0.3096
v  -0.4191 0.0161 0.2423
v  -0.2404 0.0161 0.4170
v  -0.3109 0.0161 0.3710
v  -0.0833 0.0161 0.4741
v  -0.1653 0.0161 0.4550
v  0.0839 0.0161 0.4740
v  0.0003 0.0161 0.4841
v  0.2409 0.0161 0.4167
v  0.1658 0.0161 0.4548
v  0.3689 0.0161 0.3092
v  0.3114 0.0161 0.3706
v  0.4524 0.0161 0.1644
v  0.4194 0.0161 0.2418
v  0.4814 0.0161 -0.0003
v  0.4768 0.0161 0.0838
v  0.4522 0.0161 -0.1649
v  0.4767 0.0161 -0.0843
v  0.3686 0.0161 -0.3096
v  0.4191 0.0161 -0.2423
v  -0.0000 0.0161 0.0000
# 146 vertices

vn 0.5506 -0.6949 -0.4625
vn 0.4701 -0.6813 -0.5610
vn 0.4701 0.6813 -0.5610
vn 0.5506 0.6949 -0.4625
vn 0.3592 -0.6949 -0.6230
vn 0.2499 -0.6813 -0.6880
vn 0.2500 0.6813 -0.6880
vn 0.3592 0.6949 -0.6230
vn 0.1244 -0.6949 -0.7083
vn -0.0004 -0.6813 -0.7320
vn -0.0004 0.6813 -0.7320
vn 0.1244 0.6949 -0.7083
vn -0.1253 -0.6949 -0.7081
vn -0.2508 -0.6813 -0.6877
vn -0.2508 0.6813 -0.6877
vn -0.1253 0.6949 -0.7081
vn -0.3600 -0.6949 -0.6226
vn -0.4709 -0.6813 -0.5605
vn -0.4709 0.6813 -0.5605
vn -0.3600 0.6949 -0.6226
vn -0.5512 -0.6949 -0.4619
vn -0.6341 -0.6813 -0.3656
vn -0.6341 0.6813 -0.3656
vn -0.5512 0.6949 -0.4619
vn -0.6759 -0.6949 -0.2456
vn -0.7210 -0.6813 -0.1267
vn -0.7210 0.6813 -0.1267
vn -0.6759 0.6949 -0.2456
vn -0.7191 -0.6949 0.0004
vn -0.7208 -0.6813 0.1275
vn -0.7208 0.6813 0.1275
vn -0.7191 0.6949 0.0004
vn -0.6756 -0.6949 0.2464
vn -0.6337 -0.6813 0.3664
vn -0.6337 0.6813 0.3664
vn -0.6756 0.6949 0.2464
vn -0.5506 -0.6949 0.4625
vn -0.4701 -0.6814 0.5610
vn -0.4701 0.6814 0.5610
vn -0.5506 0.6949 0.4625
vn -0.3592 -0.6949 0.6230
vn -0.2499 -0.6813 0.6880
vn -0.2499 0.6813 0.6880
vn -0.3592 0.6949 0.6230
vn -0.1244 -0.6949 0.7083
vn 0.0004 -0.6813 0.7320
vn 0.0005 0.6813 0.7320
vn -0.1244 0.6949 0.7083
vn 0.1253 -0.6949 0.7081
vn 0.2508 -0.6813 0.6877
vn 0.2508 0.6813 0.6877
vn 0.1253 0.6949 0.7081
vn 0.3600 -0.6949 0.6226
vn 0.4709 -0.6813 0.5605
vn 0.4709 0.6813 0.5605
vn 0.3600 0.6949 0.6226
vn 0.5512 -0.6949 0.4619
vn 0.6342 -0.6813 0.3656
vn 0.6342 0.6813 0.3656
vn 0.5512 0.6949 0.4619
vn 0.6759 -0.6949 0.2456
vn 0.7210 -0.6813 0.1267
vn 0.7210 0.6813 0.1267
vn 0.6759 0.6949 0.2456
vn 0.7191 -0.6949 -0.0004
vn 0.7208 -0.6813 -0.1275
vn 0.7208 0.6813 -0.1275
vn 0.7191 0.6949 -0.0004
vn 0.6756 -0.6949 -0.2464
vn 0.6337 -0.6813 -0.3664
vn 0.6337 0.6813 -0.3664
vn 0.6756 0.6949 -0.2464
vn 0.0000 -1.0000 -0.0000
vn -0.3467 0.7198 0.6014
vn -0.4356 0.7349 0.5198
vn -0.1201 0.7198 0.6837
vn -0.2316 0.7349 0.6375
vn 0.1210 0.7198 0.6836
vn 0.0004 0.7349 0.6782
vn 0.3475 0.7198 0.6009
vn 0.2324 0.7348 0.6372
vn 0.5321 0.7198 0.4459
vn 0.4363 0.7349 0.5193
vn 0.6524 0.7198 0.2370
vn 0.5876 0.7348 0.3388
vn 0.6942 0.7198 -0.0004
vn 0.6680 0.7349 0.1174
vn 0.6522 0.7198 -0.2378
vn 0.6678 0.7349 -0.1182
vn 0.5315 0.7198 -0.4465
vn 0.5871 0.7349 -0.3395
vn 0.3467 0.7198 -0.6014
vn 0.4356 0.7349 -0.5198
vn 0.1201 0.7197 -0.6838
vn 0.2316 0.7349 -0.6375
vn -0.1210 0.7197 -0.6836
vn -0.0004 0.7349 -0.6782
vn -0.3475 0.7198 -0.6010
vn -0.2324 0.7349 -0.6372
vn -0.5321 0.7198 -0.4459
vn -0.4363 0.7349 -0.5193
vn -0.6524 0.7198 -0.2370
vn -0.5876 0.7349 -0.3387
vn -0.6942 0.7198 0.0004
vn -0.6680 0.7348 -0.1174
vn -0.6522 0.7198 0.2378
vn -0.6678 0.7349 0.1182
vn -0.5315 0.7198 0.4465
vn -0.5871 0.7349 0.3395
vn -0.4701 0.6813 0.5610
vn 0.0004 0.6813 0.7320
vn 0.7208 0.6813 -0.1276
vn 0.5506 0.6949 -0.4626
vn 0.4702 0.6813 -0.5610
vn 0.2499 0.6813 -0.6880
vn -0.6760 0.6948 -0.2456
vn -0.7209 0.6813 -0.1267
vn -0.5506 0.6949 0.4626
vn 0.0000 1.0000 -0.0000
# 119 vertex normals

vt 0.7500 0.0000 1.0000
vt 0.7778 0.0000 1.0000
vt 0.7778 1.0000 1.0000
vt 0.7500 1.0000 1.0000
vt 0.8056 0.0000 1.0000
vt 0.8333 0.0000 1.0000
vt 0.8333 1.0000 1.0000
vt 0.8056 1.0000 1.0000
vt 0.8611 0.0000 1.0000
vt 0.8889 0.0000 1.0000
vt 0.8889 1.0000 1.0000
vt 0.8611 1.0000 1.0000
vt 0.9167 0.0000 1.0000
vt 0.9444 0.0000 1.0000
vt 0.9444 1.0000 1.0000
vt 0.9167 1.0000 1.0000
vt -0.0278 0.0000 1.0000
vt 0.0000 0.0000 1.0000
vt 0.0000 1.0000 1.0000
vt -0.0278 1.0000 1.0000
vt 0.0278 0.0000 1.0000
vt 0.0556 0.0000 1.0000
vt 0.0556 1.0000 1.0000
vt 0.0278 1.0000 1.0000
vt 0.0833 0.0000 1.0000
vt 0.1111 0.0000 1.0000
vt 0.1111 1.0000 1.0000
vt 0.0833 1.0000 1.0000
vt 0.1389 0.0000 1.0000
vt 0.1667 0.0000 1.0000
vt 0.1667 1.0000 1.0000
vt 0.1389 1.0000 1.0000
vt 0.1944 0.0000 1.0000
vt 0.2222 0.0000 1.0000
vt 0.2222 1.0000 1.0000
vt 0.1944 1.0000 1.0000
vt 0.2500 0.0000 1.0000
vt 0.2778 0.0000 1.0000
vt 0.2778 1.0000 1.0000
vt 0.2500 1.0000 1.0000
vt 0.3056 0.0000 1.0000
vt 0.3333 0.0000 1.0000
vt 0.3333 1.0000 1.0000
vt 0.3056 1.0000 1.0000
vt 0.3611 0.0000 1.0000
vt 0.3889 0.0000 1.0000
vt 0.3889 1.0000 1.0000
vt 0.3611 1.0000 1.0000
vt 0.4167 0.0000 1.0000
vt 0.4444 0.0000 1.0000
vt 0.4444 1.0000 1.0000
vt 0.4167 1.0000 1.0000
vt 0.4722 0.0000 1.0000
vt 0.5000 0.0000 1.0000
vt 0.5000 1.0000 1.0000
vt 0.4722 1.0000 1.0000
vt 0.5278 0.0000 1.0000
vt 0.5556 0.0000 1.0000
vt 0.5556 1.0000 1.0000
vt 0.5278 1.0000 1.0000
vt 0.5833 0.0000 1.0000
vt 0.6111 0.0000 1.0000
vt 0.6111 1.0000 1.0000
vt 0.5833 1.0000 1.0000
vt 0.6389 0.0000 1.0000
vt 0.6667 0.0000 1.0000
vt 0.6667 1.0000 1.0000
vt 0.6389 1.0000 1.0000
vt 0.6944 0.0000 1.0000
vt 0.7222 0.0000 1.0000
vt 0.7222 1.0000 1.0000
vt 0.6944 1.0000 1.0000
vt 0.9722 0.0000 1.0000
vt 0.9722 1.0000 1.0000
vt 0.7917 0.0000 1.0000
vt 0.4583 0.0000 1.0000
vt 0.5139 0.0000 1.0000
vt 0.5694 0.0000 1.0000
vt 0.6250 0.0000 1.0000
vt 0.6250 1.0000 1.0000
vt -0.0139 1.0000 1.0000
vt 0.0417 1.0000 1.0000
vt 0.0972 1.0000 1.0000
vt 0.1528 1.0000 1.0000
vt 0.2083 1.0000 1.0000
vt 0.2639 1.0000 1.0000
vt 0.3194 1.0000 1.0000
# 87 texture coords

o Cylinder001
g Cylinder001
s 1
f 1/1/1 2/2/2 3/3/3 4/4/4 
f 5/5/5 6/6/6 7/7/7 8/8/8 
f 9/9/9 10/10/10 11/11/11 12/12/12 
f 13/13/13 14/14/14 15/15/15 16/16/16 
f 17/17/17 18/18/18 19/19/19 20/20/20 
f 21/21/21 22/22/22 23/23/23 24/24/24 
f 25/25/25 26/26/26 27/27/27 28/28/28 
f 29/29/29 30/30/30 31/31/31 32/32/32 
f 33/33/33 34/34/34 35/35/35 36/36/36 
f 37/37/37 38/38/38 39/39/39 40/40/40 
f 41/41/41 42/42/42 43/43/43 44/44/44 
f 45/45/45 46/46/46 47/47/47 48/48/48 
f 49/49/49 50/50/50 51/51/51 52/52/52 
f 53/53/53 54/54/54 55/55/55 56/56/56 
f 57/57/57 58/58/58 59/59/59 60/60/60 
f 61/61/61 62/62/62 63/63/63 64/64/64 
f 65/65/65 66/66/66 67/67/67 68/68/68 
f 69/69/69 70/70/70 71/71/71 72/72/72 
f 2/2/2 5/5/5 8/8/8 3/3/3 
f 6/6/6 9/9/9 12/12/12 7/7/7 
f 10/10/10 13/13/13 16/16/16 11/11/11 
f 14/14/14 17/73/17 20/74/20 15/15/15 
f 18/18/18 21/21/21 24/24/24 19/19/19 
f 22/22/22 25/25/25 28/28/28 23/23/23 
f 26/26/26 29/29/29 32/32/32 27/27/27 
f 30/30/30 33/33/33 36/36/36 31/31/31 
f 34/34/34 37/37/37 40/40/40 35/35/35 
f 38/38/38 41/41/41 44/44/44 39/39/39 
f 42/42/42 45/45/45 48/48/48 43/43/43 
f 46/46/46 49/49/49 52/52/52 47/47/47 
f 50/50/50 53/53/53 56/56/56 51/51/51 
f 54/54/54 57/57/57 60/60/60 55/55/55 
f 58/58/58 61/61/61 64/64/64 59/59/59 
f 62/62/62 65/65/65 68/68/68 63/63/63 
f 66/66/66 69/69/69 72/72/72 67/67/67 
f 70/70/70 1/1/1 4/4/4 71/71/71 
s 2
f 2/2/2 1/1/1 73/75/73 
f 6/6/6 5/5/5 73/75/73 
f 10/10/10 9/9/9 73/13/73 
f 14/14/14 13/13/13 73/13/73 
f 18/18/18 17/17/17 73/33/73 
f 22/22/22 21/21/21 73/33/73 
f 26/26/26 25/25/25 73/33/73 
f 30/30/30 29/29/29 73/33/73 
f 34/34/34 33/33/33 73/33/73 
f 38/38/38 37/37/37 73/33/73 
f 42/42/42 41/41/41 73/33/73 
f 46/46/46 45/45/45 73/33/73 
f 50/50/50 49/49/49 73/76/73 
f 54/54/54 53/53/53 73/77/73 
f 58/58/58 57/57/57 73/78/73 
f 62/62/62 61/61/61 73/79/73 
f 66/66/66 65/65/65 73/69/73 
f 70/70/70 69/69/69 73/69/73 
f 5/5/5 2/2/2 73/75/73 
f 9/9/9 6/6/6 73/13/73 
f 13/13/13 10/10/10 73/13/73 
f 17/73/17 14/14/14 73/13/73 
f 21/21/21 18/18/18 73/33/73 
f 25/25/25 22/22/22 73/33/73 
f 29/29/29 26/26/26 73/33/73 
f 33/33/33 30/30/30 73/33/73 
f 37/37/37 34/34/34 73/33/73 
f 41/41/41 38/38/38 73/33/73 
f 45/45/45 42/42/42 73/33/73 
f 49/49/49 46/46/46 73/33/73 
f 53/53/53 50/50/50 73/76/73 
f 57/57/57 54/54/54 73/77/73 
f 61/61/61 58/58/58 73/78/73 
f 65/65/65 62/62/62 73/79/73 
f 69/69/69 66/66/66 73/69/73 
f 1/1/1 70/70/70 73/75/73 
f 3/3/3 8/8/8 74/8/74 75/3/75 
f 7/7/7 12/12/12 76/12/76 77/7/77 
f 11/11/11 16/16/16 78/16/78 79/11/79 
f 15/15/15 20/74/20 80/74/80 81/15/81 
f 19/19/19 24/24/24 82/24/82 83/19/83 
f 23/23/23 28/28/28 84/28/84 85/23/85 
f 27/27/27 32/32/32 86/32/86 87/27/87 
f 31/31/31 36/36/36 88/36/88 89/31/89 
f 35/35/35 40/40/40 90/40/90 91/35/91 
f 39/39/39 44/44/44 92/44/92 93/39/93 
f 43/43/43 48/48/48 94/48/94 95/43/95 
f 47/47/47 52/52/52 96/52/96 97/47/97 
f 51/51/51 56/56/56 98/56/98 99/51/99 
f 55/55/55 60/60/60 100/60/100 101/55/101 
f 59/59/59 64/64/64 102/64/102 103/59/103 
f 63/63/63 68/68/68 104/68/104 105/63/105 
f 67/67/67 72/72/72 106/72/106 107/67/107 
f 71/71/71 4/4/4 108/4/108 109/71/109 
f 4/4/4 3/3/3 75/3/75 108/4/108 
f 8/8/8 7/7/7 77/7/77 74/8/74 
f 12/12/12 11/11/11 79/11/79 76/12/76 
f 16/16/16 15/15/15 81/15/81 78/16/78 
f 20/20/20 19/19/19 83/19/83 80/20/80 
f 24/24/24 23/23/23 85/23/85 82/24/82 
f 28/28/28 27/27/27 87/27/87 84/28/84 
f 32/32/32 31/31/31 89/31/89 86/32/86 
f 36/36/36 35/35/35 91/35/91 88/36/88 
f 40/40/40 39/39/39 93/39/93 90/40/90 
f 44/44/44 43/43/43 95/43/95 92/44/92 
f 48/48/48 47/47/47 97/47/97 94/48/94 
f 52/52/52 51/51/51 99/51/99 96/52/96 
f 56/56/56 55/55/55 101/55/101 98/56/98 
f 60/60/60 59/59/59 103/59/103 100/60/100 
f 64/64/64 63/63/63 105/63/105 102/64/102 
f 68/68/68 67/67/67 107/67/107 104/68/104 
f 72/72/72 71/71/71 109/71/109 106/72/106 
s 1
f 75/3/75 74/8/74 110/8/44 111/3/110 
f 77/7/77 76/12/76 112/12/48 113/7/43 
f 79/11/79 78/16/78 114/16/52 115/11/111 
f 81/15/81 80/74/80 116/74/56 117/15/51 
f 83/19/83 82/24/82 118/24/60 119/19/55 
f 85/23/85 84/28/84 120/28/64 121/23/59 
f 87/27/87 86/32/86 122/32/68 123/27/63 
f 89/31/89 88/36/88 124/36/72 125/31/112 
f 91/35/91 90/40/90 126/40/113 127/35/71 
f 93/39/93 92/44/92 128/44/8 129/39/114 
f 95/43/95 94/48/94 130/48/12 131/43/115 
f 97/47/97 96/52/96 132/52/16 133/47/11 
f 99/51/99 98/56/98 134/56/20 135/51/15 
f 101/55/101 100/60/100 136/60/24 137/55/19 
f 103/59/103 102/64/102 138/64/116 139/59/23 
f 105/63/105 104/68/104 140/68/32 141/63/117 
f 107/67/107 106/72/106 142/72/36 143/67/31 
f 109/71/109 108/4/108 144/4/118 145/71/35 
f 108/4/108 75/3/75 111/3/110 144/4/118 
f 74/8/74 77/7/77 113/7/43 110/8/44 
f 76/12/76 79/11/79 115/11/111 112/12/48 
f 78/16/78 81/15/81 117/15/51 114/16/52 
f 80/20/80 83/19/83 119/19/55 116/20/56 
f 82/24/82 85/23/85 121/23/59 118/24/60 
f 84/28/84 87/27/87 123/27/63 120/28/64 
f 86/32/86 89/31/89 125/31/112 122/32/68 
f 88/36/88 91/35/91 127/35/71 124/36/72 
f 90/40/90 93/39/93 129/39/114 126/40/113 
f 92/44/92 95/43/95 131/43/115 128/44/8 
f 94/48/94 97/47/97 133/47/11 130/48/12 
f 96/52/96 99/51/99 135/51/15 132/52/16 
f 98/56/98 101/55/101 137/55/19 134/56/20 
f 100/60/100 103/59/103 139/59/23 136/60/24 
f 102/64/102 105/63/105 141/63/117 138/64/116 
f 104/68/104 107/67/107 143/67/31 140/68/32 
f 106/72/106 109/71/109 145/71/35 142/72/36 
s 2
f 111/3/110 110/8/44 146/80/119 
f 113/7/43 112/12/48 146/80/119 
f 115/11/111 114/16/52 146/80/119 
f 117/15/51 116/74/56 146/15/119 
f 119/19/55 118/24/60 146/81/119 
f 121/23/59 120/28/64 146/82/119 
f 123/27/63 122/32/68 146/83/119 
f 125/31/112 124/36/72 146/84/119 
f 127/35/71 126/40/113 146/85/119 
f 129/39/114 128/44/8 146/86/119 
f 131/43/115 130/48/12 146/87/119 
f 133/47/11 132/52/16 146/80/119 
f 135/51/15 134/56/20 146/80/119 
f 137/55/19 136/60/24 146/80/119 
f 139/59/23 138/64/116 146/80/119 
f 141/63/117 140/68/32 146/80/119 
f 143/67/31 142/72/36 146/80/119 
f 145/71/35 144/4/118 146/80/119 
f 144/4/118 111/3/110 146/80/119 
f 110/8/44 113/7/43 146/80/119 
f 112/12/48 115/11/111 146/80/119 
f 114/16/52 117/15/51 146/15/119 
f 116/20/56 119/19/55 146/81/119 
f 118/24/60 121/23/59 146/82/119 
f 120/28/64 123/27/63 146/83/119 
f 122/32/68 125/31/112 146/84/119 
f 124/36/72 127/35/71 146/85/119 
f 126/40/113 129/39/114 146/86/119 
f 128/44/8 131/43/115 146/87/119 
f 130/48/12 133/47/11 146/80/119 
f 132/52/16 135/51/15 146/80/119 
f 134/56/20 137/55/19 146/80/119 
f 136/60/24 139/59/23 146/80/119 
f 138/64/116 141/63/117 146/80/119 
f 140/68/32 143/67/31 146/80/119 
f 142/72/36 145/71/35 146/80/119 
# 108 polygons - 72 triangles

